G04*
G04 #@! TF.GenerationSoftware,Altium Limited,Altium Designer,21.6.4 (81)*
G04*
G04 Layer_Color=255*
%FSLAX25Y25*%
%MOIN*%
G70*
G04*
G04 #@! TF.SameCoordinates,D5C6F8BD-756C-4CA3-9184-76241C2A0D58*
G04*
G04*
G04 #@! TF.FilePolarity,Positive*
G04*
G01*
G75*
%ADD20R,0.03985X0.04758*%
%ADD31R,0.02953X0.03347*%
%ADD71C,0.11929*%
%ADD72C,0.12441*%
%ADD73C,0.06653*%
%ADD74R,0.06653X0.06653*%
%ADD93C,0.07480*%
%ADD94R,0.07480X0.07480*%
%ADD95C,0.06000*%
%ADD96R,0.06000X0.06000*%
%ADD97C,0.05906*%
%ADD98C,0.16535*%
%ADD99R,0.06890X0.06890*%
%ADD100C,0.06890*%
%ADD101C,0.06299*%
%ADD102P,0.08908X4X270.0*%
%ADD103C,0.04134*%
%ADD104R,0.05150X0.05150*%
%ADD105C,0.05150*%
%ADD106C,0.18898*%
%ADD107R,0.06299X0.06299*%
G04:AMPARAMS|DCode=130|XSize=61.02mil|YSize=23.62mil|CornerRadius=2.01mil|HoleSize=0mil|Usage=FLASHONLY|Rotation=0.000|XOffset=0mil|YOffset=0mil|HoleType=Round|Shape=RoundedRectangle|*
%AMROUNDEDRECTD130*
21,1,0.06102,0.01961,0,0,0.0*
21,1,0.05701,0.02362,0,0,0.0*
1,1,0.00402,0.02850,-0.00980*
1,1,0.00402,-0.02850,-0.00980*
1,1,0.00402,-0.02850,0.00980*
1,1,0.00402,0.02850,0.00980*
%
%ADD130ROUNDEDRECTD130*%
D20*
X107000Y72157D02*
D03*
Y65843D02*
D03*
D31*
X94718Y56200D02*
D03*
X89600D02*
D03*
D71*
X535032Y61000D02*
D03*
X414035Y61020D02*
D03*
X453024Y333980D02*
D03*
X330996D02*
D03*
D72*
X465031Y51000D02*
D03*
X344035Y51020D02*
D03*
X523024Y343980D02*
D03*
X400996D02*
D03*
D73*
X480031Y111000D02*
D03*
X359035Y111020D02*
D03*
X508024Y283980D02*
D03*
X385996D02*
D03*
D74*
X520031Y111000D02*
D03*
X399035Y111020D02*
D03*
X468024Y283980D02*
D03*
X345996D02*
D03*
D93*
X292032Y284256D02*
D03*
Y343311D02*
D03*
Y362996D02*
D03*
Y382681D02*
D03*
X262504D02*
D03*
Y362996D02*
D03*
Y343311D02*
D03*
X272504Y110744D02*
D03*
Y51689D02*
D03*
Y32004D02*
D03*
Y12319D02*
D03*
X302031D02*
D03*
Y32004D02*
D03*
Y51689D02*
D03*
D94*
X262504Y284256D02*
D03*
X302031Y110744D02*
D03*
D95*
X105200Y303600D02*
D03*
Y343600D02*
D03*
Y383600D02*
D03*
X145200Y303600D02*
D03*
Y383600D02*
D03*
D96*
X165200Y303600D02*
D03*
D97*
X20866Y41653D02*
D03*
Y61654D02*
D03*
Y81653D02*
D03*
Y101654D02*
D03*
Y121653D02*
D03*
Y141654D02*
D03*
Y161653D02*
D03*
Y181653D02*
D03*
Y201654D02*
D03*
Y221654D02*
D03*
Y241653D02*
D03*
Y261653D02*
D03*
Y281653D02*
D03*
Y301654D02*
D03*
Y321654D02*
D03*
Y341653D02*
D03*
X40866Y41653D02*
D03*
Y61654D02*
D03*
Y81653D02*
D03*
Y101654D02*
D03*
Y121653D02*
D03*
Y141654D02*
D03*
Y161653D02*
D03*
Y181653D02*
D03*
Y201654D02*
D03*
Y221654D02*
D03*
Y241653D02*
D03*
Y261653D02*
D03*
Y281653D02*
D03*
Y301654D02*
D03*
Y321654D02*
D03*
Y341653D02*
D03*
X59400Y101058D02*
D03*
Y133342D02*
D03*
D98*
X10866Y371654D02*
D03*
Y21654D02*
D03*
D99*
X589653Y43465D02*
D03*
Y263142D02*
D03*
Y153465D02*
D03*
D100*
X568000Y43465D02*
D03*
X589653Y60000D02*
D03*
X568000D02*
D03*
X589653Y76535D02*
D03*
X568000D02*
D03*
X589653Y93071D02*
D03*
X568000D02*
D03*
X589653Y109606D02*
D03*
X568000D02*
D03*
X589653Y126142D02*
D03*
X568000D02*
D03*
Y263142D02*
D03*
X589653Y279677D02*
D03*
X568000D02*
D03*
X589653Y296213D02*
D03*
X568000D02*
D03*
X589653Y312748D02*
D03*
X568000D02*
D03*
X589653Y329283D02*
D03*
X568000D02*
D03*
X589653Y345819D02*
D03*
X568000D02*
D03*
Y236142D02*
D03*
X589653D02*
D03*
X568000Y219606D02*
D03*
X589653D02*
D03*
X568000Y203071D02*
D03*
X589653D02*
D03*
X568000Y186535D02*
D03*
X589653D02*
D03*
X568000Y170000D02*
D03*
X589653D02*
D03*
X568000Y153465D02*
D03*
D101*
X50422Y350722D02*
D03*
X57493Y357793D02*
D03*
X71636Y371936D02*
D03*
X78707Y379007D02*
D03*
X64565Y364864D02*
D03*
X141842Y23000D02*
D03*
D102*
X85778Y386078D02*
D03*
D103*
X123000Y281500D02*
D03*
Y286500D02*
D03*
X128000Y281500D02*
D03*
X133000D02*
D03*
X128000Y286500D02*
D03*
X133000D02*
D03*
X138000Y281500D02*
D03*
X143000D02*
D03*
X138000Y286500D02*
D03*
X143000D02*
D03*
D104*
X59400Y109326D02*
D03*
D105*
Y117200D02*
D03*
Y125074D02*
D03*
D106*
X615866Y371850D02*
D03*
Y21850D02*
D03*
D107*
X122158Y23000D02*
D03*
D130*
X74370Y62500D02*
D03*
Y67500D02*
D03*
Y72500D02*
D03*
Y77500D02*
D03*
X95630D02*
D03*
Y72500D02*
D03*
Y67500D02*
D03*
Y62500D02*
D03*
M02*
