M48
;Layer_Color=9474304
;FILE_FORMAT=2:4
INCH,TZ
;TYPE=PLATED
T1F00S00C0.0079
T2F00S00C0.0276
T3F00S00C0.0300
T4F00S00C0.0315
T5F00S00C0.0394
T6F00S00C0.0429
T7F00S00C0.0433
T8F00S00C0.0551
T9F00S00C0.0780
T10F00S00C0.0811
T11F00S00C0.1102
;TYPE=NON_PLATED
T12F00S00C0.0591
%
T01
X9630Y2300
X7510Y5870
X9560Y8320
X11350Y7220
X16900Y7800
X7450Y8460
Y9730
X7000Y12250
X6590Y15370
X5710Y15360
X6190Y18200
X6560Y18770
X5720Y18760
X7000Y19250
X6060Y21170
X7460Y22440
X7450Y22990
Y23443
X7440Y23840
X9500Y23000
X9550Y22770
X10600Y21400
X10498Y21197
X11405Y20905
X11880Y19480
X8500Y19000
X7900Y20250
X7850Y17340
X7980Y12430
X7830Y11270
X13000Y12350
X16970Y15740
X16980Y16060
X17325
Y15740
X17670
Y16060
X17010Y19440
Y19760
X16665
Y19440
X16310
X16300Y19120
X16320Y19760
X16229Y21600
X15800
X15371
X14943
X15371Y22200
X15800
X16229
X14200
X13771
X13343
X19200Y21500
Y21200
X19700Y23590
X20450Y23020
X20700Y17500
X21600Y14800
X18800Y9700
X23488Y18112
X25712Y18012
X26980Y16000
X29500Y15000
X27416Y22666
X25840Y23120
X40000Y23000
X39000Y16000
X40250Y14250
X51500Y16000
X53500Y14500
X52000Y23000
X49750Y24000
X37250
X20100Y25500
X16600Y25373
X16171
X15743
X15314
X14886
X14457
X14029
X13600
Y24900
X14029
X14457
X14886
X15314
X15743
X16171
X16600
X14886Y24300
X14457
X14029
X13600
X10000Y24700
X9100Y25210
X8470Y25240
X8830Y25930
X8870Y30750
X9657
X9264Y31537
X10051
X10839
X11626
X12413
X13201
X13988
X14776
X15480Y32245
Y32550
Y32855
Y33160
Y33465
Y33770
X15830Y33780
Y33461
Y33143
Y32824
X17400Y33000
Y32450
Y32050
Y31600
Y31150
X18142Y29662
X19710Y31180
X13594Y30750
X12807
X12020
X11232
X12130Y32400
X11400Y28300
X11700Y28000
X7575Y29765
X10490Y36380
X11855Y37700
X12643
X13430
X14217
X15005
X15399Y38487
X13824
X13036
X12249
X5180Y30940
X6000Y30000
Y26750
X5220Y25650
X7030Y25660
X6000Y24500
T02
X12300Y28150
Y28650
X12800
Y28150
X13300
Y28650
X13800
Y28150
X14300
Y28650
T03
X10520Y30360
Y34360
Y38360
X14520
Y30360
X16520
T04
X5940Y10933
Y11720
Y12507
T05
X2087Y4165
Y6165
Y8165
X4087
Y6165
Y4165
Y10165
X2087
Y12165
Y14165
Y16165
Y18165
Y20165
Y22165
X4087
Y20165
Y18165
Y16165
Y14165
Y12165
Y24165
X2087
Y26165
Y28165
Y30165
Y32165
Y34165
X4087
Y32165
Y30165
Y28165
Y26165
T06
X35904Y11102
X39904
X48003Y11100
X52003
X50802Y28398
X46802
X38600
X34600
T07
X12216Y2300
X14184
X7871Y37901
X8578Y38608
X7164Y37194
X6456Y36486
X5749Y35779
X5042Y35072
T08
X56800Y4346
Y6000
Y7654
X58965
Y6000
Y4346
X30203Y5169
Y3200
Y1232
X27250
Y3200
Y5169
Y11074
X30203
X56800Y10961
Y9307
X58965
Y10961
Y12614
X56800
Y15346
Y17000
Y18654
Y20307
Y21961
Y23614
X58965
Y21961
Y20307
Y18654
Y17000
Y15346
Y26314
Y27968
Y29621
Y31275
Y32928
Y34582
X56800
Y32928
Y31275
Y29621
Y27968
Y26314
X29203Y28426
X26250
Y34331
Y36300
Y38268
X29203
Y36300
Y34331
T09
X41404Y6102
X53503Y6100
X45302Y33398
X33100
T10
X46503Y5100
X34404Y5102
X40100Y34398
X52302
T11
X61587Y2185
X1087Y2165
X61587Y37185
X1087Y37165
T12
X5940Y10106
Y13334
M30
