G04*
G04 #@! TF.GenerationSoftware,Altium Limited,Altium Designer,21.6.4 (81)*
G04*
G04 Layer_Color=8388736*
%FSLAX25Y25*%
%MOIN*%
G70*
G04*
G04 #@! TF.SameCoordinates,D5C6F8BD-756C-4CA3-9184-76241C2A0D58*
G04*
G04*
G04 #@! TF.FilePolarity,Positive*
G04*
G01*
G75*
%ADD11C,0.00787*%
D11*
X548024Y6984D02*
Y134976D01*
X440031D02*
X548024D01*
X440031Y6984D02*
Y134976D01*
Y6984D02*
X548024D01*
X427028Y7004D02*
Y134996D01*
X319035D02*
X427028D01*
X319035Y7004D02*
Y134996D01*
Y7004D02*
X427028D01*
X440031Y387996D02*
X548024D01*
Y260004D02*
Y387996D01*
X440031Y260004D02*
X548024D01*
X440031D02*
Y387996D01*
X318004D02*
X425996D01*
Y260004D02*
Y387996D01*
X318004Y260004D02*
X425996D01*
X318004D02*
Y387996D01*
X132425Y238307D02*
X135575D01*
X132425Y232007D02*
Y238307D01*
Y232007D02*
X135575D01*
Y238307D01*
X141862D02*
X145012D01*
X141862Y232007D02*
Y238307D01*
Y232007D02*
X145012D01*
Y238307D01*
X197701Y57653D02*
X210299D01*
X197701D02*
Y64346D01*
X210299D01*
Y57653D02*
Y64346D01*
X219701Y10874D02*
X232299D01*
X219701D02*
Y17567D01*
X232299D01*
Y10874D02*
Y17567D01*
X169701D02*
X182299D01*
Y10874D02*
Y17567D01*
X169701Y10874D02*
X182299D01*
X169701D02*
Y17567D01*
X216441Y89291D02*
X221559D01*
X216441D02*
Y100709D01*
X221559D01*
Y89291D02*
Y100709D01*
X197850Y15575D02*
X204150D01*
Y12425D02*
Y15575D01*
X197850Y12425D02*
X204150D01*
X197850D02*
Y15575D01*
X200701Y337567D02*
X213299D01*
Y330874D02*
Y337567D01*
X200701Y330874D02*
X213299D01*
X200701D02*
Y337567D01*
X178701Y384347D02*
X191299D01*
Y377654D02*
Y384347D01*
X178701Y377654D02*
X191299D01*
X178701D02*
Y384347D01*
X224701Y377654D02*
X237299D01*
X224701D02*
Y384347D01*
X237299D01*
Y377654D02*
Y384347D01*
X191441Y305929D02*
X196559D01*
Y294512D02*
Y305929D01*
X191441Y294512D02*
X196559D01*
X191441D02*
Y305929D01*
X204850Y379646D02*
X211150D01*
X204850D02*
Y382796D01*
X211150D01*
Y379646D02*
Y382796D01*
X159811Y324023D02*
X166110D01*
Y320874D02*
Y324023D01*
X159811Y320874D02*
X166110D01*
X159811D02*
Y324023D01*
X78750Y360875D02*
X85050D01*
Y357725D02*
Y360875D01*
X78750Y357725D02*
X85050D01*
X78750D02*
Y360875D01*
X78850Y364825D02*
Y367975D01*
Y364825D02*
X85150D01*
Y367975D01*
X78850D02*
X85150D01*
X129961Y323622D02*
Y343701D01*
X150039D01*
Y323622D02*
Y343701D01*
X129961Y323622D02*
X150039D01*
X259705Y236850D02*
Y243150D01*
Y236850D02*
X270295D01*
Y243150D01*
X259705D02*
X270295D01*
X282103Y239099D02*
Y242642D01*
Y239099D02*
X288796D01*
Y242642D01*
X282103D02*
X288796D01*
X288681Y146850D02*
Y153150D01*
X278091D02*
X288681D01*
X278091Y146850D02*
Y153150D01*
Y146850D02*
X288681D01*
X259590Y147358D02*
X266283D01*
X259590D02*
Y150901D01*
X266283D01*
Y147358D02*
Y150901D01*
X533681Y146850D02*
Y153150D01*
X523091D02*
X533681D01*
X523091Y146850D02*
Y153150D01*
Y146850D02*
X533681D01*
X504590Y147358D02*
X511283D01*
X504590D02*
Y150901D01*
X511283D01*
Y147358D02*
Y150901D01*
X55358Y158098D02*
X58902D01*
Y164791D01*
X55358D02*
X58902D01*
X55358Y158098D02*
Y164791D01*
X64358Y158098D02*
X67902D01*
Y164791D01*
X64358D02*
X67902D01*
X64358Y158098D02*
Y164791D01*
X408681Y146850D02*
Y153150D01*
X398091D02*
X408681D01*
X398091Y146850D02*
Y153150D01*
Y146850D02*
X408681D01*
X386283Y147358D02*
Y150901D01*
X379590D02*
X386283D01*
X379590Y147358D02*
Y150901D01*
Y147358D02*
X386283D01*
X54508Y324606D02*
Y342717D01*
X65492D01*
Y324606D02*
Y342717D01*
X54508Y324606D02*
X65492D01*
X504705Y243150D02*
X515295D01*
Y236850D02*
Y243150D01*
X504705Y236850D02*
X515295D01*
X504705D02*
Y243150D01*
X526653Y242642D02*
X533347D01*
Y239099D02*
Y242642D01*
X526653Y239099D02*
X533347D01*
X526653D02*
Y242642D01*
X191428Y165053D02*
Y171747D01*
X194972D01*
Y165053D02*
Y171747D01*
X191428Y165053D02*
X194972D01*
X162883Y346159D02*
X169576D01*
Y342616D02*
Y346159D01*
X162883Y342616D02*
X169576D01*
X162883D02*
Y346159D01*
X125772Y357653D02*
Y364347D01*
X122228Y357653D02*
X125772D01*
X122228D02*
Y364347D01*
X125772D01*
X116347Y322228D02*
Y325772D01*
X109653D02*
X116347D01*
X109653Y322228D02*
Y325772D01*
Y322228D02*
X116347D01*
X381319Y243150D02*
X391910D01*
Y236850D02*
Y243150D01*
X381319Y236850D02*
X391910D01*
X381319D02*
Y243150D01*
X403717Y242642D02*
X410410D01*
Y239099D02*
Y242642D01*
X403717Y239099D02*
X410410D01*
X403717D02*
Y242642D01*
X132000Y176850D02*
Y183150D01*
X128850Y176850D02*
X132000D01*
X128850D02*
Y183150D01*
X132000D01*
X154000Y177007D02*
Y183307D01*
X150850Y177007D02*
X154000D01*
X150850D02*
Y183307D01*
X154000D01*
X143000Y177007D02*
Y183307D01*
X139850Y177007D02*
X143000D01*
X139850D02*
Y183307D01*
X143000D01*
X77425Y206850D02*
X80575D01*
Y213150D01*
X77425D02*
X80575D01*
X77425Y206850D02*
Y213150D01*
X84993Y192425D02*
Y195575D01*
X78693D02*
X84993D01*
X78693Y192425D02*
Y195575D01*
Y192425D02*
X84993D01*
X84850Y244425D02*
Y247575D01*
Y244425D02*
X91150D01*
Y247575D01*
X84850D02*
X91150D01*
X157823Y232819D02*
Y241480D01*
X152114Y232819D02*
X157823D01*
X152114D02*
Y241480D01*
X157823D01*
X79850Y129425D02*
X86150D01*
X79850D02*
Y132575D01*
X86150D01*
Y129425D02*
Y132575D01*
X123850D02*
X130150D01*
Y129425D02*
Y132575D01*
X123850Y129425D02*
X130150D01*
X123850D02*
Y132575D01*
X58850Y194425D02*
Y197575D01*
Y194425D02*
X65150D01*
Y197575D01*
X58850D02*
X65150D01*
X81850Y262425D02*
Y265575D01*
Y262425D02*
X88150D01*
Y265575D01*
X81850D02*
X88150D01*
X183425Y183150D02*
X186575D01*
X183425Y176850D02*
Y183150D01*
Y176850D02*
X186575D01*
Y183150D01*
X176854Y175669D02*
Y184331D01*
X171146Y175669D02*
X176854D01*
X171146D02*
Y184331D01*
X176854D01*
X160622Y333854D02*
X169283D01*
Y328146D02*
Y333854D01*
X160622Y328146D02*
X169283D01*
X160622D02*
Y333854D01*
X118425Y336811D02*
X121575D01*
X118425Y330512D02*
Y336811D01*
Y330512D02*
X121575D01*
Y336811D01*
X56425Y66007D02*
X59575D01*
Y72307D01*
X56425D02*
X59575D01*
X56425Y66007D02*
Y72307D01*
X101654Y327756D02*
Y339567D01*
Y327756D02*
X108346D01*
Y339567D01*
X101654D02*
X108346D01*
M02*
