G04*
G04 #@! TF.GenerationSoftware,Altium Limited,Altium Designer,21.6.4 (81)*
G04*
G04 Layer_Color=32768*
%FSLAX25Y25*%
%MOIN*%
G70*
G04*
G04 #@! TF.SameCoordinates,D5C6F8BD-756C-4CA3-9184-76241C2A0D58*
G04*
G04*
G04 #@! TF.FilePolarity,Positive*
G04*
G01*
G75*
%ADD13C,0.00394*%
%ADD131C,0.00197*%
D13*
X47756Y7677D02*
Y385630D01*
X-33228Y7677D02*
X47756D01*
X-33228D02*
Y385630D01*
X47756D01*
X205130Y168441D02*
X208870D01*
X207000Y166571D02*
Y170311D01*
X178032Y92250D02*
X181968D01*
X180000Y90282D02*
Y94219D01*
X220031Y41000D02*
X223969D01*
X222000Y39031D02*
Y42968D01*
X182032Y41000D02*
X185968D01*
X184000Y39031D02*
Y42968D01*
X208032Y41000D02*
X211968D01*
X210000Y39031D02*
Y42968D01*
X195031Y41000D02*
X198969D01*
X197000Y39031D02*
Y42968D01*
X219000Y74730D02*
Y78667D01*
X217032Y76698D02*
X220969D01*
X179000Y75032D02*
Y78969D01*
X177032Y77000D02*
X180968D01*
X207559Y235351D02*
Y239091D01*
X205689Y237221D02*
X209429D01*
X217032Y302970D02*
X220969D01*
X219000Y301002D02*
Y304939D01*
X185031Y354221D02*
X188969D01*
X187000Y352252D02*
Y356189D01*
X191000Y316554D02*
Y320491D01*
X189032Y318522D02*
X192968D01*
X198031Y354221D02*
X201969D01*
X200000Y352252D02*
Y356189D01*
X210032Y354221D02*
X213968D01*
X212000Y352252D02*
Y356189D01*
X224031Y354221D02*
X227969D01*
X226000Y352252D02*
Y356189D01*
X221000Y316252D02*
Y320189D01*
X219032Y318221D02*
X222969D01*
X71859Y351530D02*
Y355270D01*
X69989Y353400D02*
X73729D01*
X105000Y151031D02*
Y154969D01*
X103032Y153000D02*
X106968D01*
X107000Y217032D02*
Y220969D01*
X105032Y219000D02*
X108968D01*
X244032Y205000D02*
X247969D01*
X246000Y203031D02*
Y206968D01*
X92159Y54330D02*
Y58070D01*
X90289Y56200D02*
X94029D01*
X285000Y228130D02*
Y231870D01*
X283130Y230000D02*
X286870D01*
X261130Y160000D02*
X264870D01*
X263000Y158130D02*
Y161870D01*
X74600Y104030D02*
Y107770D01*
X72730Y105900D02*
X76470D01*
X80000Y272130D02*
Y275870D01*
X78130Y274000D02*
X81870D01*
X57130Y177575D02*
Y181315D01*
X55260Y179445D02*
X59000D01*
X506130Y160000D02*
X509870D01*
X508000Y158130D02*
Y161870D01*
X66130Y177575D02*
Y181315D01*
X64260Y179445D02*
X68000D01*
X380689Y160000D02*
X384429D01*
X382559Y158130D02*
Y161870D01*
X172031Y168000D02*
X175969D01*
X174000Y166032D02*
Y169968D01*
X530000Y228130D02*
Y231870D01*
X528130Y230000D02*
X531870D01*
X191130Y178441D02*
X194870D01*
X193000Y176571D02*
Y180311D01*
X166230Y336517D02*
Y340257D01*
X164360Y338387D02*
X168100D01*
X122130Y350000D02*
X125870D01*
X124000Y348130D02*
Y351870D01*
X101571Y324000D02*
X105311D01*
X103441Y322130D02*
Y325870D01*
X407559Y228130D02*
Y231870D01*
X405689Y230000D02*
X409429D01*
X166799Y187047D02*
Y192953D01*
X179201Y187047D02*
Y192953D01*
X166799D02*
X179201D01*
X166799Y187047D02*
X179201D01*
X171031Y190000D02*
X174969D01*
X173000Y188031D02*
Y191969D01*
X151147Y351401D02*
X157053D01*
X151147Y338999D02*
X157053D01*
Y351401D01*
X151147Y338999D02*
Y351401D01*
X154100Y343232D02*
Y347168D01*
X152131Y345200D02*
X156069D01*
X132000Y21032D02*
Y24969D01*
X130032Y23000D02*
X133968D01*
X73032Y333661D02*
X76968D01*
X75000Y331693D02*
Y335630D01*
X160261Y313387D02*
X164198D01*
X162230Y311419D02*
Y315356D01*
X88032Y335000D02*
X91969D01*
X90000Y333032D02*
Y336968D01*
X160621Y179943D02*
X164558D01*
X162589Y177974D02*
Y181911D01*
X162666Y235371D02*
X166603D01*
X164634Y233403D02*
Y237340D01*
X133031Y353661D02*
X136969D01*
X135000Y351693D02*
Y355630D01*
X143032Y353661D02*
X146968D01*
X145000Y351693D02*
Y355630D01*
D131*
X251185Y272937D02*
Y389276D01*
X303350D01*
Y272937D02*
Y389276D01*
X251185Y272937D02*
X303350D01*
X313350Y5724D02*
Y122063D01*
X261185Y5724D02*
X313350D01*
X261185D02*
Y122063D01*
X313350D01*
X73795Y206968D02*
Y253031D01*
X48205Y206968D02*
X73795D01*
X48205D02*
Y253031D01*
X73795D01*
X558650Y31850D02*
X599004D01*
Y137756D01*
X558650D02*
X599004D01*
X558650Y31850D02*
Y137756D01*
Y251528D02*
X599004D01*
Y357433D01*
X558650D02*
X599004D01*
X558650Y251528D02*
Y357433D01*
Y141850D02*
Y247756D01*
X599004D01*
Y141850D02*
Y247756D01*
X558650Y141850D02*
X599004D01*
X180516Y108268D02*
Y151732D01*
Y108268D02*
X216736D01*
Y151732D01*
X180516D02*
X216736D01*
X209362Y163913D02*
Y172968D01*
X204638Y163913D02*
Y172968D01*
X209362D01*
X204638Y163913D02*
X209362D01*
X183346Y86935D02*
Y97565D01*
X176654Y86935D02*
Y97565D01*
X183346D01*
X176654Y86935D02*
X183346D01*
X218555Y49366D02*
X225445D01*
X218555Y32634D02*
Y49366D01*
Y32634D02*
X225445D01*
Y49366D01*
X180555Y32634D02*
X187445D01*
Y49366D01*
X180555D02*
X187445D01*
X180555Y32634D02*
Y49366D01*
X206555D02*
X213445D01*
X206555Y32634D02*
Y49366D01*
Y32634D02*
X213445D01*
Y49366D01*
X193555Y32634D02*
X200445D01*
Y49366D01*
X193555D02*
X200445D01*
X193555Y32634D02*
Y49366D01*
X227366Y73254D02*
Y80143D01*
X210634D02*
X227366D01*
X210634Y73254D02*
Y80143D01*
Y73254D02*
X227366D01*
X171323Y73063D02*
X186677D01*
X171323Y80937D02*
X186677D01*
Y73063D02*
Y80937D01*
X171323Y73063D02*
Y80937D01*
X225484Y243489D02*
Y286953D01*
X189264D02*
X225484D01*
X189264Y243489D02*
Y286953D01*
Y243489D02*
X225484D01*
X203031Y239583D02*
X212087D01*
X203031Y234858D02*
X212087D01*
X203031D02*
Y239583D01*
X212087Y234858D02*
Y239583D01*
X215653Y297655D02*
Y308285D01*
X222346Y297655D02*
Y308285D01*
X215653Y297655D02*
X222346D01*
X215653Y308285D02*
X222346D01*
X183555Y345855D02*
X190445D01*
Y362587D01*
X183555D02*
X190445D01*
X183555Y345855D02*
Y362587D01*
X199366Y315077D02*
Y321967D01*
X182634D02*
X199366D01*
X182634Y315077D02*
Y321967D01*
Y315077D02*
X199366D01*
X196555Y345855D02*
X203445D01*
Y362587D01*
X196555D02*
X203445D01*
X196555Y345855D02*
Y362587D01*
X208555D02*
X215445D01*
X208555Y345855D02*
Y362587D01*
Y345855D02*
X215445D01*
Y362587D01*
X222555D02*
X229445D01*
X222555Y345855D02*
Y362587D01*
Y345855D02*
X229445D01*
Y362587D01*
X213323Y314284D02*
X228677D01*
X213323Y322158D02*
X228677D01*
Y314284D02*
Y322158D01*
X213323Y314284D02*
Y322158D01*
X50213Y341911D02*
X94589Y386286D01*
X41611Y350514D02*
X50213Y341911D01*
X41611Y350514D02*
X85987Y394889D01*
X94589Y386286D01*
X66708Y369792D02*
X69492Y367008D01*
X66708D02*
X69492Y369792D01*
X133000Y282031D02*
Y285968D01*
X131032Y284000D02*
X134968D01*
X119122Y291776D02*
X146878D01*
Y276224D02*
Y291776D01*
X119122Y276224D02*
X146878D01*
X119122D02*
Y291776D01*
X49951Y99287D02*
X54479D01*
X49951D02*
Y135113D01*
X54479D01*
Y137869D01*
X64321D01*
Y135113D02*
Y137869D01*
Y135113D02*
X68849D01*
Y99287D02*
Y135113D01*
X64321Y99287D02*
X68849D01*
X64321Y96531D02*
Y99287D01*
X54479Y96531D02*
X64321D01*
X54479D02*
Y99287D01*
X67331Y351038D02*
X76387D01*
X67331Y355762D02*
X76387D01*
Y351038D02*
Y355762D01*
X67331Y351038D02*
Y355762D01*
X74882Y143354D02*
X135118D01*
Y162646D01*
X74882Y143354D02*
Y162646D01*
X135118D01*
X84756Y196756D02*
X129244D01*
X84756Y241244D02*
X129244D01*
X84756Y196756D02*
Y241244D01*
X129244Y196756D02*
Y241244D01*
X229661Y183346D02*
Y226654D01*
X262339Y183346D02*
Y226654D01*
X229661D02*
X262339D01*
X229661Y183346D02*
X262339D01*
X48205Y259968D02*
X73795D01*
Y306031D01*
X48205D02*
X73795D01*
X48205Y259968D02*
Y306031D01*
X87631Y58562D02*
X96687D01*
X87631Y53838D02*
X96687D01*
Y58562D01*
X87631Y53838D02*
Y58562D01*
X280472Y232362D02*
X289528D01*
X280472Y227638D02*
X289528D01*
X280472D02*
Y232362D01*
X289528Y227638D02*
Y232362D01*
X258472Y157638D02*
Y162362D01*
X267528Y157638D02*
Y162362D01*
X258472D02*
X267528D01*
X258472Y157638D02*
X267528D01*
X72238Y101372D02*
X76962D01*
X72238Y110427D02*
X76962D01*
X72238Y101372D02*
Y110427D01*
X76962Y101372D02*
Y110427D01*
X77638Y269472D02*
X82362D01*
X77638Y278528D02*
X82362D01*
X77638Y269472D02*
Y278528D01*
X82362Y269472D02*
Y278528D01*
X54768Y174917D02*
X59492D01*
X54768Y183972D02*
X59492D01*
X54768Y174917D02*
Y183972D01*
X59492Y174917D02*
Y183972D01*
X503472Y157638D02*
Y162362D01*
X512528Y157638D02*
Y162362D01*
X503472D02*
X512528D01*
X503472Y157638D02*
X512528D01*
X63768Y174917D02*
X68492D01*
X63768Y183972D02*
X68492D01*
X63768Y174917D02*
Y183972D01*
X68492Y174917D02*
Y183972D01*
X378031Y157638D02*
Y162362D01*
X387087Y157638D02*
Y162362D01*
X378031D02*
X387087D01*
X378031Y157638D02*
X387087D01*
X177347Y162685D02*
Y173315D01*
X170653Y162685D02*
Y173315D01*
X177347D01*
X170653Y162685D02*
X177347D01*
X525472Y232362D02*
X534528D01*
X525472Y227638D02*
X534528D01*
X525472D02*
Y232362D01*
X534528Y227638D02*
Y232362D01*
X195362Y173913D02*
Y182968D01*
X190638Y173913D02*
Y182968D01*
X195362D01*
X190638Y173913D02*
X195362D01*
X161702Y340749D02*
X170757D01*
X161702Y336025D02*
X170757D01*
X161702D02*
Y340749D01*
X170757Y336025D02*
Y340749D01*
X121638Y345472D02*
Y354528D01*
X126362Y345472D02*
Y354528D01*
X121638Y345472D02*
X126362D01*
X121638Y354528D02*
X126362D01*
X107968Y321638D02*
Y326362D01*
X98913Y321638D02*
Y326362D01*
Y321638D02*
X107968D01*
X98913Y326362D02*
X107968D01*
X403031Y232362D02*
X412087D01*
X403031Y227638D02*
X412087D01*
X403031D02*
Y232362D01*
X412087Y227638D02*
Y232362D01*
X109559Y6465D02*
Y39535D01*
X152079D01*
Y6465D02*
Y39535D01*
X109559Y6465D02*
X152079D01*
X68405Y319744D02*
Y347579D01*
Y319744D02*
X81595D01*
X68405Y347579D02*
X81595D01*
Y319744D02*
Y347579D01*
X153608Y316931D02*
X170852D01*
Y309844D02*
Y316931D01*
X153608Y309844D02*
Y316931D01*
Y309844D02*
X170852D01*
X84291Y323189D02*
Y346811D01*
X95709Y323189D02*
Y346811D01*
X84291Y323189D02*
X95709D01*
X84291Y346811D02*
X95709D01*
X166526Y172265D02*
Y187620D01*
X158652Y172265D02*
Y187620D01*
X166526D01*
X158652Y172265D02*
X166526D01*
X168571Y227694D02*
Y243049D01*
X160697Y227694D02*
Y243049D01*
X168571D01*
X160697Y227694D02*
X168571D01*
X131063Y345984D02*
Y361339D01*
X138937Y345984D02*
Y361339D01*
X131063Y345984D02*
X138937D01*
X131063Y361339D02*
X138937D01*
X141063Y345984D02*
Y361339D01*
X148937Y345984D02*
Y361339D01*
X141063Y345984D02*
X148937D01*
X141063Y361339D02*
X148937D01*
M02*
