G04*
G04 #@! TF.GenerationSoftware,Altium Limited,Altium Designer,21.6.4 (81)*
G04*
G04 Layer_Color=16711935*
%FSLAX25Y25*%
%MOIN*%
G70*
G04*
G04 #@! TF.SameCoordinates,D5C6F8BD-756C-4CA3-9184-76241C2A0D58*
G04*
G04*
G04 #@! TF.FilePolarity,Negative*
G04*
G01*
G75*
%ADD20R,0.03985X0.04758*%
%ADD58R,0.03753X0.04147*%
%ADD69C,0.08280*%
%ADD70R,0.08280X0.08280*%
%ADD71C,0.11929*%
%ADD72C,0.12441*%
%ADD73C,0.06653*%
%ADD74R,0.06653X0.06653*%
%ADD75C,0.06800*%
%ADD76R,0.06800X0.06800*%
%ADD77C,0.06706*%
%ADD78C,0.17335*%
%ADD79R,0.07690X0.07690*%
%ADD80C,0.07690*%
%ADD81C,0.07099*%
%ADD82P,0.10040X4X270.0*%
%ADD83C,0.04934*%
%ADD84R,0.05950X0.05950*%
%ADD85C,0.05950*%
%ADD86C,0.19698*%
%ADD87R,0.07099X0.07099*%
%ADD88C,0.02375*%
G04:AMPARAMS|DCode=130|XSize=61.02mil|YSize=23.62mil|CornerRadius=2.01mil|HoleSize=0mil|Usage=FLASHONLY|Rotation=0.000|XOffset=0mil|YOffset=0mil|HoleType=Round|Shape=RoundedRectangle|*
%AMROUNDEDRECTD130*
21,1,0.06102,0.01961,0,0,0.0*
21,1,0.05701,0.02362,0,0,0.0*
1,1,0.00402,0.02850,-0.00980*
1,1,0.00402,-0.02850,-0.00980*
1,1,0.00402,-0.02850,0.00980*
1,1,0.00402,0.02850,0.00980*
%
%ADD130ROUNDEDRECTD130*%
D20*
X107000Y72157D02*
D03*
Y65843D02*
D03*
D58*
X94718Y56200D02*
D03*
X89600D02*
D03*
D69*
X292032Y284256D02*
D03*
Y343311D02*
D03*
Y362996D02*
D03*
Y382681D02*
D03*
X262504D02*
D03*
Y362996D02*
D03*
Y343311D02*
D03*
X272504Y110744D02*
D03*
Y51689D02*
D03*
Y32004D02*
D03*
Y12319D02*
D03*
X302031D02*
D03*
Y32004D02*
D03*
Y51689D02*
D03*
D70*
X262504Y284256D02*
D03*
X302031Y110744D02*
D03*
D71*
X535032Y61000D02*
D03*
X414035Y61020D02*
D03*
X453024Y333980D02*
D03*
X330996D02*
D03*
D72*
X465031Y51000D02*
D03*
X344035Y51020D02*
D03*
X523024Y343980D02*
D03*
X400996D02*
D03*
D73*
X480031Y111000D02*
D03*
X359035Y111020D02*
D03*
X508024Y283980D02*
D03*
X385996D02*
D03*
D74*
X520031Y111000D02*
D03*
X399035Y111020D02*
D03*
X468024Y283980D02*
D03*
X345996D02*
D03*
D75*
X105200Y303600D02*
D03*
Y343600D02*
D03*
Y383600D02*
D03*
X145200Y303600D02*
D03*
Y383600D02*
D03*
D76*
X165200Y303600D02*
D03*
D77*
X20866Y41653D02*
D03*
Y61654D02*
D03*
Y81653D02*
D03*
Y101654D02*
D03*
Y121653D02*
D03*
Y141654D02*
D03*
Y161653D02*
D03*
Y181653D02*
D03*
Y201654D02*
D03*
Y221654D02*
D03*
Y241653D02*
D03*
Y261653D02*
D03*
Y281653D02*
D03*
Y301654D02*
D03*
Y321654D02*
D03*
Y341653D02*
D03*
X40866Y41653D02*
D03*
Y61654D02*
D03*
Y81653D02*
D03*
Y101654D02*
D03*
Y121653D02*
D03*
Y141654D02*
D03*
Y161653D02*
D03*
Y181653D02*
D03*
Y201654D02*
D03*
Y221654D02*
D03*
Y241653D02*
D03*
Y261653D02*
D03*
Y281653D02*
D03*
Y301654D02*
D03*
Y321654D02*
D03*
Y341653D02*
D03*
X59400Y101058D02*
D03*
Y133342D02*
D03*
D78*
X10866Y371654D02*
D03*
Y21654D02*
D03*
D79*
X589653Y43465D02*
D03*
Y263142D02*
D03*
Y153465D02*
D03*
D80*
X568000Y43465D02*
D03*
X589653Y60000D02*
D03*
X568000D02*
D03*
X589653Y76535D02*
D03*
X568000D02*
D03*
X589653Y93071D02*
D03*
X568000D02*
D03*
X589653Y109606D02*
D03*
X568000D02*
D03*
X589653Y126142D02*
D03*
X568000D02*
D03*
Y263142D02*
D03*
X589653Y279677D02*
D03*
X568000D02*
D03*
X589653Y296213D02*
D03*
X568000D02*
D03*
X589653Y312748D02*
D03*
X568000D02*
D03*
X589653Y329283D02*
D03*
X568000D02*
D03*
X589653Y345819D02*
D03*
X568000D02*
D03*
Y236142D02*
D03*
X589653D02*
D03*
X568000Y219606D02*
D03*
X589653D02*
D03*
X568000Y203071D02*
D03*
X589653D02*
D03*
X568000Y186535D02*
D03*
X589653D02*
D03*
X568000Y170000D02*
D03*
X589653D02*
D03*
X568000Y153465D02*
D03*
D81*
X50422Y350722D02*
D03*
X57493Y357793D02*
D03*
X71636Y371936D02*
D03*
X78707Y379007D02*
D03*
X64565Y364864D02*
D03*
X141842Y23000D02*
D03*
D82*
X85778Y386078D02*
D03*
D83*
X123000Y281500D02*
D03*
Y286500D02*
D03*
X128000Y281500D02*
D03*
X133000D02*
D03*
X128000Y286500D02*
D03*
X133000D02*
D03*
X138000Y281500D02*
D03*
X143000D02*
D03*
X138000Y286500D02*
D03*
X143000D02*
D03*
D84*
X59400Y109326D02*
D03*
D85*
Y117200D02*
D03*
Y125074D02*
D03*
D86*
X615866Y371850D02*
D03*
Y21850D02*
D03*
D87*
X122158Y23000D02*
D03*
D88*
X148857Y253728D02*
D03*
Y249000D02*
D03*
X60600Y211700D02*
D03*
X70300Y256600D02*
D03*
X174000Y330000D02*
D03*
Y324500D02*
D03*
Y320500D02*
D03*
Y316000D02*
D03*
Y311500D02*
D03*
X258400Y231200D02*
D03*
X497500Y240000D02*
D03*
X74500Y229900D02*
D03*
X60000Y245000D02*
D03*
X79000Y202496D02*
D03*
X70000Y192500D02*
D03*
X65600Y187700D02*
D03*
X70000Y122500D02*
D03*
X85000Y190000D02*
D03*
X60000Y300000D02*
D03*
X51800Y309400D02*
D03*
X100000Y247000D02*
D03*
X84700Y252400D02*
D03*
X88300Y259300D02*
D03*
X95000Y230000D02*
D03*
X74500Y234425D02*
D03*
X74400Y238400D02*
D03*
X60000Y267500D02*
D03*
X75750Y297650D02*
D03*
X128070Y307500D02*
D03*
X120196D02*
D03*
X520000Y230000D02*
D03*
X372500Y240000D02*
D03*
X400000Y230000D02*
D03*
X274163Y226663D02*
D03*
X390000Y160000D02*
D03*
X402500Y142500D02*
D03*
X535000Y145000D02*
D03*
X269800Y160000D02*
D03*
X295000Y150000D02*
D03*
X515000Y160000D02*
D03*
X257122Y180122D02*
D03*
X234878Y181122D02*
D03*
X105997Y214003D02*
D03*
X104983Y211965D02*
D03*
X114051Y209051D02*
D03*
X192000Y215000D02*
D03*
Y212000D02*
D03*
X137714Y222000D02*
D03*
X162286D02*
D03*
X153714D02*
D03*
X158000D02*
D03*
X142000D02*
D03*
X133429D02*
D03*
X162286Y216000D02*
D03*
X158000D02*
D03*
X149429D02*
D03*
X153714D02*
D03*
X157429Y253728D02*
D03*
X153143D02*
D03*
X166000D02*
D03*
X161714D02*
D03*
X136000D02*
D03*
X140286D02*
D03*
X144571D02*
D03*
X140286Y249000D02*
D03*
X144571D02*
D03*
X136000D02*
D03*
X157429D02*
D03*
X153143D02*
D03*
X161714D02*
D03*
X166000D02*
D03*
X140286Y243000D02*
D03*
X136000D02*
D03*
X148857D02*
D03*
X144571D02*
D03*
X114000Y283000D02*
D03*
X117000Y280000D02*
D03*
X201000Y255000D02*
D03*
X188000Y97000D02*
D03*
X169000Y78000D02*
D03*
X207000Y175000D02*
D03*
X216000Y148000D02*
D03*
X96300Y23000D02*
D03*
X118800Y194800D02*
D03*
X95600Y83200D02*
D03*
X113500Y72200D02*
D03*
X95500Y227700D02*
D03*
X57200Y187600D02*
D03*
X74500Y84600D02*
D03*
X79800Y124300D02*
D03*
X74500Y97300D02*
D03*
X57100Y153600D02*
D03*
X75100Y58700D02*
D03*
X65900Y153700D02*
D03*
X96574Y307500D02*
D03*
X88700D02*
D03*
X92637Y315374D02*
D03*
X100511D02*
D03*
X112322Y307500D02*
D03*
X116259Y315374D02*
D03*
X108385D02*
D03*
X124133D02*
D03*
X132007D02*
D03*
X121300Y324000D02*
D03*
X104900Y363800D02*
D03*
X126426Y377000D02*
D03*
X204500Y230200D02*
D03*
X197000Y235900D02*
D03*
X139881Y315374D02*
D03*
X181418Y296618D02*
D03*
X197100Y311800D02*
D03*
X91000Y252100D02*
D03*
X61900Y182000D02*
D03*
X74600Y224400D02*
D03*
X78500Y173400D02*
D03*
X78300Y112700D02*
D03*
X130000Y123500D02*
D03*
X169800Y160600D02*
D03*
X173250D02*
D03*
X176700D02*
D03*
X173250Y157400D02*
D03*
X169700D02*
D03*
X176700D02*
D03*
X163000Y191200D02*
D03*
X170100Y194400D02*
D03*
X163100D02*
D03*
X166650D02*
D03*
X170100Y197600D02*
D03*
X166650D02*
D03*
X163200D02*
D03*
X158300Y328242D02*
D03*
X154800Y328549D02*
D03*
X158300Y331428D02*
D03*
X154800Y331599D02*
D03*
Y322448D02*
D03*
Y325499D02*
D03*
Y334650D02*
D03*
X158300Y337800D02*
D03*
Y334614D02*
D03*
X154800Y337700D02*
D03*
X147755Y315374D02*
D03*
X135944Y307500D02*
D03*
X153985Y384874D02*
D03*
X150048Y377000D02*
D03*
X142174D02*
D03*
X138237Y384874D02*
D03*
X134300Y377000D02*
D03*
X130363Y384874D02*
D03*
X122489D02*
D03*
X118552Y377000D02*
D03*
X52200Y256500D02*
D03*
D130*
X74370Y62500D02*
D03*
Y67500D02*
D03*
Y72500D02*
D03*
Y77500D02*
D03*
X95630D02*
D03*
Y72500D02*
D03*
Y67500D02*
D03*
Y62500D02*
D03*
M02*
