G04*
G04 #@! TF.GenerationSoftware,Altium Limited,Altium Designer,21.6.4 (81)*
G04*
G04 Layer_Color=32768*
%FSLAX25Y25*%
%MOIN*%
G70*
G04*
G04 #@! TF.SameCoordinates,D5C6F8BD-756C-4CA3-9184-76241C2A0D58*
G04*
G04*
G04 #@! TF.FilePolarity,Positive*
G04*
G01*
G75*
%ADD11C,0.00787*%
G36*
X88574Y67427D02*
X88374D01*
X88338Y67488D01*
X88298Y67547D01*
X88250Y67605D01*
X88207Y67656D01*
X88163Y67699D01*
X88130Y67736D01*
X88116Y67747D01*
X88105Y67758D01*
X88101Y67761D01*
X88098Y67765D01*
X88021Y67827D01*
X87945Y67885D01*
X87872Y67936D01*
X87799Y67976D01*
X87737Y68013D01*
X87712Y68027D01*
X87690Y68038D01*
X87672Y68049D01*
X87657Y68053D01*
X87650Y68060D01*
X87646D01*
Y68358D01*
X87701Y68336D01*
X87755Y68311D01*
X87810Y68286D01*
X87861Y68260D01*
X87905Y68238D01*
X87941Y68220D01*
X87963Y68205D01*
X87967Y68202D01*
X87970D01*
X88036Y68162D01*
X88094Y68122D01*
X88145Y68085D01*
X88185Y68053D01*
X88221Y68027D01*
X88243Y68005D01*
X88261Y67991D01*
X88265Y67987D01*
Y69956D01*
X88574D01*
Y67427D01*
D02*
G37*
G36*
X86125Y69993D02*
X86183Y69986D01*
X86238Y69978D01*
X86292Y69967D01*
X86339Y69956D01*
X86383Y69945D01*
X86423Y69931D01*
X86460Y69916D01*
X86489Y69905D01*
X86518Y69894D01*
X86540Y69884D01*
X86558Y69873D01*
X86569Y69869D01*
X86576Y69862D01*
X86580D01*
X86660Y69807D01*
X86725Y69745D01*
X86776Y69687D01*
X86820Y69629D01*
X86853Y69578D01*
X86875Y69538D01*
X86882Y69523D01*
X86889Y69512D01*
X86893Y69505D01*
Y69501D01*
X86907Y69458D01*
X86922Y69410D01*
X86944Y69312D01*
X86958Y69210D01*
X86969Y69112D01*
X86973Y69068D01*
X86976Y69024D01*
Y68988D01*
X86980Y68955D01*
Y68930D01*
Y68912D01*
Y68897D01*
Y68893D01*
Y67437D01*
X86645D01*
Y68893D01*
Y68977D01*
X86638Y69057D01*
X86631Y69126D01*
X86620Y69192D01*
X86609Y69250D01*
X86594Y69305D01*
X86583Y69352D01*
X86569Y69392D01*
X86554Y69425D01*
X86540Y69458D01*
X86525Y69480D01*
X86514Y69501D01*
X86503Y69516D01*
X86496Y69527D01*
X86492Y69530D01*
X86489Y69534D01*
X86456Y69563D01*
X86419Y69589D01*
X86339Y69629D01*
X86256Y69658D01*
X86168Y69676D01*
X86088Y69691D01*
X86055Y69694D01*
X86023D01*
X86001Y69698D01*
X85965D01*
X85888Y69694D01*
X85819Y69683D01*
X85753Y69672D01*
X85702Y69654D01*
X85659Y69640D01*
X85626Y69629D01*
X85608Y69618D01*
X85601Y69614D01*
X85550Y69581D01*
X85506Y69541D01*
X85470Y69501D01*
X85444Y69465D01*
X85422Y69428D01*
X85404Y69403D01*
X85397Y69385D01*
X85393Y69378D01*
X85382Y69345D01*
X85375Y69312D01*
X85360Y69236D01*
X85349Y69156D01*
X85342Y69076D01*
X85338Y69006D01*
Y68974D01*
X85335Y68948D01*
Y68926D01*
Y68908D01*
Y68897D01*
Y68893D01*
Y67437D01*
X85000D01*
Y68893D01*
Y68966D01*
X85004Y69035D01*
X85007Y69101D01*
X85014Y69163D01*
X85022Y69217D01*
X85029Y69268D01*
X85040Y69316D01*
X85047Y69359D01*
X85054Y69399D01*
X85065Y69432D01*
X85073Y69461D01*
X85080Y69483D01*
X85087Y69501D01*
X85091Y69516D01*
X85095Y69523D01*
Y69527D01*
X85135Y69607D01*
X85186Y69680D01*
X85237Y69738D01*
X85291Y69789D01*
X85338Y69829D01*
X85378Y69858D01*
X85393Y69865D01*
X85404Y69873D01*
X85411Y69880D01*
X85415D01*
X85506Y69920D01*
X85601Y69949D01*
X85699Y69971D01*
X85790Y69986D01*
X85830Y69989D01*
X85870Y69993D01*
X85906Y69996D01*
X85935D01*
X85961Y70000D01*
X85994D01*
X86125Y69993D01*
D02*
G37*
G36*
X107342Y71897D02*
X107404Y71941D01*
X107430Y71963D01*
X107455Y71981D01*
X107477Y71999D01*
X107491Y72014D01*
X107502Y72025D01*
X107506Y72028D01*
X107524Y72047D01*
X107542Y72068D01*
X107590Y72119D01*
X107644Y72178D01*
X107699Y72240D01*
X107746Y72298D01*
X107768Y72323D01*
X107790Y72345D01*
X107804Y72363D01*
X107815Y72378D01*
X107823Y72385D01*
X107826Y72389D01*
X107877Y72447D01*
X107924Y72505D01*
X107972Y72556D01*
X108012Y72603D01*
X108052Y72647D01*
X108088Y72684D01*
X108121Y72720D01*
X108150Y72749D01*
X108179Y72778D01*
X108201Y72800D01*
X108219Y72818D01*
X108238Y72837D01*
X108259Y72855D01*
X108267Y72862D01*
X108328Y72913D01*
X108383Y72957D01*
X108438Y72993D01*
X108481Y73022D01*
X108521Y73044D01*
X108551Y73058D01*
X108569Y73066D01*
X108576Y73069D01*
X108631Y73091D01*
X108685Y73106D01*
X108736Y73120D01*
X108780Y73128D01*
X108820Y73131D01*
X108849Y73135D01*
X108867D01*
X108874D01*
X108929Y73131D01*
X108980Y73124D01*
X109031Y73117D01*
X109075Y73102D01*
X109162Y73066D01*
X109231Y73029D01*
X109264Y73008D01*
X109290Y72989D01*
X109315Y72971D01*
X109333Y72953D01*
X109348Y72938D01*
X109362Y72931D01*
X109366Y72924D01*
X109370Y72920D01*
X109406Y72880D01*
X109439Y72837D01*
X109464Y72789D01*
X109486Y72742D01*
X109522Y72647D01*
X109548Y72553D01*
X109555Y72513D01*
X109563Y72473D01*
X109566Y72436D01*
X109570Y72407D01*
X109573Y72382D01*
Y72345D01*
X109570Y72280D01*
X109566Y72218D01*
X109555Y72159D01*
X109544Y72105D01*
X109530Y72054D01*
X109515Y72007D01*
X109497Y71963D01*
X109479Y71923D01*
X109461Y71886D01*
X109442Y71857D01*
X109428Y71832D01*
X109413Y71810D01*
X109402Y71792D01*
X109391Y71781D01*
X109388Y71774D01*
X109384Y71770D01*
X109348Y71734D01*
X109308Y71701D01*
X109264Y71668D01*
X109220Y71643D01*
X109133Y71599D01*
X109046Y71570D01*
X109006Y71559D01*
X108966Y71548D01*
X108933Y71541D01*
X108904Y71533D01*
X108878Y71530D01*
X108860D01*
X108849Y71526D01*
X108845D01*
X108813Y71843D01*
X108896Y71850D01*
X108969Y71865D01*
X109035Y71886D01*
X109086Y71912D01*
X109129Y71934D01*
X109159Y71956D01*
X109177Y71970D01*
X109184Y71977D01*
X109228Y72032D01*
X109260Y72090D01*
X109286Y72152D01*
X109300Y72207D01*
X109311Y72258D01*
X109315Y72301D01*
X109319Y72316D01*
Y72338D01*
X109315Y72414D01*
X109300Y72483D01*
X109279Y72542D01*
X109257Y72593D01*
X109231Y72633D01*
X109213Y72658D01*
X109198Y72676D01*
X109191Y72684D01*
X109140Y72727D01*
X109089Y72760D01*
X109038Y72786D01*
X108987Y72800D01*
X108947Y72811D01*
X108911Y72815D01*
X108889Y72818D01*
X108886D01*
X108882D01*
X108816Y72811D01*
X108747Y72796D01*
X108685Y72771D01*
X108627Y72746D01*
X108580Y72716D01*
X108540Y72691D01*
X108525Y72684D01*
X108514Y72676D01*
X108510Y72669D01*
X108507D01*
X108467Y72640D01*
X108427Y72603D01*
X108383Y72563D01*
X108340Y72520D01*
X108252Y72429D01*
X108165Y72338D01*
X108125Y72290D01*
X108088Y72250D01*
X108055Y72210D01*
X108026Y72178D01*
X108005Y72152D01*
X107986Y72130D01*
X107975Y72116D01*
X107972Y72112D01*
X107895Y72021D01*
X107823Y71937D01*
X107757Y71868D01*
X107703Y71814D01*
X107655Y71766D01*
X107622Y71734D01*
X107600Y71715D01*
X107597Y71708D01*
X107593D01*
X107531Y71657D01*
X107473Y71617D01*
X107415Y71581D01*
X107364Y71552D01*
X107320Y71530D01*
X107288Y71515D01*
X107266Y71508D01*
X107262Y71504D01*
X107258D01*
X107218Y71490D01*
X107182Y71482D01*
X107146Y71475D01*
X107113Y71472D01*
X107084Y71468D01*
X107062D01*
X107047D01*
X107044D01*
Y73139D01*
X107342D01*
Y71897D01*
D02*
G37*
G36*
X107924Y70893D02*
X107866Y70878D01*
X107812Y70860D01*
X107761Y70842D01*
X107713Y70824D01*
X107670Y70802D01*
X107633Y70780D01*
X107597Y70754D01*
X107564Y70733D01*
X107535Y70714D01*
X107513Y70692D01*
X107491Y70674D01*
X107473Y70660D01*
X107462Y70645D01*
X107451Y70634D01*
X107448Y70631D01*
X107444Y70627D01*
X107415Y70591D01*
X107393Y70551D01*
X107353Y70470D01*
X107324Y70394D01*
X107306Y70318D01*
X107291Y70252D01*
X107288Y70227D01*
Y70201D01*
X107284Y70179D01*
Y70154D01*
X107288Y70070D01*
X107302Y69990D01*
X107320Y69917D01*
X107342Y69852D01*
X107364Y69801D01*
X107375Y69779D01*
X107382Y69761D01*
X107389Y69746D01*
X107397Y69735D01*
X107400Y69728D01*
Y69724D01*
X107451Y69655D01*
X107506Y69597D01*
X107568Y69546D01*
X107626Y69506D01*
X107677Y69473D01*
X107721Y69451D01*
X107739Y69444D01*
X107750Y69437D01*
X107757Y69433D01*
X107761D01*
X107855Y69404D01*
X107950Y69382D01*
X108045Y69364D01*
X108132Y69353D01*
X108172Y69349D01*
X108208Y69346D01*
X108241D01*
X108267Y69342D01*
X108289D01*
X108307D01*
X108318D01*
X108321D01*
X108416Y69346D01*
X108503Y69353D01*
X108583Y69368D01*
X108656Y69382D01*
X108718Y69393D01*
X108744Y69400D01*
X108765Y69408D01*
X108783Y69411D01*
X108794Y69415D01*
X108802Y69419D01*
X108805D01*
X108889Y69455D01*
X108966Y69495D01*
X109027Y69539D01*
X109082Y69586D01*
X109126Y69626D01*
X109155Y69659D01*
X109173Y69684D01*
X109180Y69688D01*
Y69691D01*
X109228Y69768D01*
X109264Y69852D01*
X109290Y69932D01*
X109304Y70008D01*
X109315Y70077D01*
X109319Y70107D01*
Y70132D01*
X109322Y70150D01*
Y70179D01*
X109319Y70270D01*
X109304Y70354D01*
X109282Y70423D01*
X109260Y70485D01*
X109235Y70532D01*
X109217Y70569D01*
X109202Y70591D01*
X109195Y70598D01*
X109140Y70656D01*
X109078Y70711D01*
X109013Y70754D01*
X108947Y70791D01*
X108889Y70820D01*
X108860Y70831D01*
X108838Y70838D01*
X108820Y70845D01*
X108805Y70853D01*
X108798Y70856D01*
X108794D01*
X108871Y71184D01*
X108936Y71162D01*
X108995Y71140D01*
X109049Y71111D01*
X109104Y71086D01*
X109151Y71056D01*
X109195Y71024D01*
X109239Y70995D01*
X109275Y70965D01*
X109304Y70936D01*
X109333Y70911D01*
X109359Y70885D01*
X109377Y70867D01*
X109395Y70849D01*
X109406Y70834D01*
X109410Y70827D01*
X109413Y70824D01*
X109446Y70773D01*
X109479Y70722D01*
X109504Y70671D01*
X109526Y70616D01*
X109559Y70507D01*
X109581Y70409D01*
X109592Y70361D01*
X109595Y70321D01*
X109599Y70281D01*
X109602Y70249D01*
X109606Y70223D01*
Y70187D01*
X109599Y70066D01*
X109581Y69950D01*
X109559Y69848D01*
X109544Y69801D01*
X109530Y69757D01*
X109515Y69717D01*
X109501Y69681D01*
X109490Y69652D01*
X109479Y69622D01*
X109468Y69604D01*
X109461Y69590D01*
X109457Y69579D01*
X109453Y69575D01*
X109391Y69477D01*
X109319Y69393D01*
X109246Y69320D01*
X109173Y69258D01*
X109107Y69211D01*
X109078Y69193D01*
X109053Y69178D01*
X109035Y69164D01*
X109020Y69156D01*
X109009Y69153D01*
X109006Y69149D01*
X108893Y69098D01*
X108776Y69062D01*
X108660Y69036D01*
X108554Y69018D01*
X108507Y69011D01*
X108460Y69007D01*
X108423Y69004D01*
X108387D01*
X108361Y69000D01*
X108340D01*
X108325D01*
X108321D01*
X108190Y69007D01*
X108063Y69022D01*
X107950Y69040D01*
X107895Y69055D01*
X107848Y69065D01*
X107804Y69076D01*
X107764Y69091D01*
X107728Y69102D01*
X107699Y69109D01*
X107677Y69120D01*
X107659Y69124D01*
X107648Y69131D01*
X107644D01*
X107535Y69186D01*
X107437Y69248D01*
X107353Y69313D01*
X107320Y69346D01*
X107288Y69375D01*
X107258Y69404D01*
X107233Y69433D01*
X107211Y69459D01*
X107196Y69480D01*
X107182Y69495D01*
X107171Y69510D01*
X107167Y69517D01*
X107164Y69520D01*
X107135Y69571D01*
X107109Y69622D01*
X107069Y69732D01*
X107040Y69841D01*
X107022Y69946D01*
X107015Y69997D01*
X107007Y70041D01*
X107004Y70081D01*
Y70114D01*
X107000Y70143D01*
Y70183D01*
X107004Y70256D01*
X107011Y70325D01*
X107018Y70390D01*
X107033Y70452D01*
X107051Y70511D01*
X107069Y70565D01*
X107087Y70616D01*
X107109Y70663D01*
X107127Y70703D01*
X107146Y70744D01*
X107164Y70773D01*
X107182Y70802D01*
X107196Y70820D01*
X107204Y70838D01*
X107211Y70845D01*
X107215Y70849D01*
X107258Y70900D01*
X107302Y70944D01*
X107353Y70984D01*
X107404Y71024D01*
X107506Y71089D01*
X107608Y71140D01*
X107655Y71162D01*
X107699Y71180D01*
X107739Y71195D01*
X107772Y71206D01*
X107801Y71217D01*
X107823Y71224D01*
X107837Y71228D01*
X107841D01*
X107924Y70893D01*
D02*
G37*
D11*
X70925Y59173D02*
X99075D01*
Y80827D01*
X70925D02*
X99075D01*
X70925Y59173D02*
Y80827D01*
X103039Y61496D02*
X110961D01*
X103039D02*
Y76504D01*
X110961D01*
Y61496D02*
Y76504D01*
M02*
