G04*
G04 #@! TF.GenerationSoftware,Altium Limited,Altium Designer,21.6.4 (81)*
G04*
G04 Layer_Color=32896*
%FSLAX25Y25*%
%MOIN*%
G70*
G04*
G04 #@! TF.SameCoordinates,D5C6F8BD-756C-4CA3-9184-76241C2A0D58*
G04*
G04*
G04 #@! TF.FilePolarity,Positive*
G04*
G01*
G75*
%ADD11C,0.00787*%
D11*
X548417Y6591D02*
Y135370D01*
X439638D02*
X548417D01*
X439638Y6591D02*
Y135370D01*
Y6591D02*
X548417D01*
X427421Y6610D02*
Y135390D01*
X318642D02*
X427421D01*
X318642Y6610D02*
Y135390D01*
Y6610D02*
X427421D01*
X439638Y388390D02*
X548417D01*
Y259610D02*
Y388390D01*
X439638Y259610D02*
X548417D01*
X439638D02*
Y388390D01*
X317610D02*
X426390D01*
Y259610D02*
Y388390D01*
X317610Y259610D02*
X426390D01*
X317610D02*
Y388390D01*
X130039Y242661D02*
X137961D01*
X130039Y227653D02*
Y242661D01*
Y227653D02*
X137961D01*
Y242661D01*
X139476D02*
X147398D01*
X139476Y227653D02*
Y242661D01*
Y227653D02*
X147398D01*
Y242661D01*
X195339Y57260D02*
X212661D01*
X195339D02*
Y64740D01*
X212661D01*
Y57260D02*
Y64740D01*
X217339Y10481D02*
X234661D01*
X217339D02*
Y17961D01*
X234661D01*
Y10481D02*
Y17961D01*
X167339D02*
X184661D01*
Y10481D02*
Y17961D01*
X167339Y10481D02*
X184661D01*
X167339D02*
Y17961D01*
X209921Y87323D02*
X228079D01*
X209921D02*
Y102677D01*
X228079D01*
Y87323D02*
Y102677D01*
X193496Y17961D02*
X208504D01*
Y10039D02*
Y17961D01*
X193496Y10039D02*
X208504D01*
X193496D02*
Y17961D01*
X198339Y337961D02*
X215661D01*
Y330481D02*
Y337961D01*
X198339Y330481D02*
X215661D01*
X198339D02*
Y337961D01*
X176339Y384740D02*
X193661D01*
Y377260D02*
Y384740D01*
X176339Y377260D02*
X193661D01*
X176339D02*
Y384740D01*
X222339Y377260D02*
X239661D01*
X222339D02*
Y384740D01*
X239661D01*
Y377260D02*
Y384740D01*
X184921Y307898D02*
X203079D01*
Y292544D02*
Y307898D01*
X184921Y292544D02*
X203079D01*
X184921D02*
Y307898D01*
X200496Y377260D02*
X215504D01*
X200496D02*
Y385182D01*
X215504D01*
Y377260D02*
Y385182D01*
X155456Y326409D02*
X170465D01*
Y318488D02*
Y326409D01*
X155456Y318488D02*
X170465D01*
X155456D02*
Y326409D01*
X74396Y363261D02*
X89404D01*
Y355339D02*
Y363261D01*
X74396Y355339D02*
X89404D01*
X74396D02*
Y363261D01*
X74496Y362439D02*
Y370361D01*
Y362439D02*
X89504D01*
Y370361D01*
X74496D02*
X89504D01*
X129567Y323228D02*
Y344094D01*
X150433D01*
Y323228D02*
Y344094D01*
X129567Y323228D02*
X150433D01*
X256401Y236457D02*
Y243543D01*
Y236457D02*
X273599D01*
Y243543D01*
X256401D02*
X273599D01*
X280528Y238705D02*
Y243036D01*
Y238705D02*
X290370D01*
Y243036D01*
X280528D02*
X290370D01*
X291985Y146457D02*
Y153543D01*
X274787D02*
X291985D01*
X274787Y146457D02*
Y153543D01*
Y146457D02*
X291985D01*
X258015Y146964D02*
X267858D01*
X258015D02*
Y151295D01*
X267858D01*
Y146964D02*
Y151295D01*
X536985Y146457D02*
Y153543D01*
X519787D02*
X536985D01*
X519787Y146457D02*
Y153543D01*
Y146457D02*
X536985D01*
X503015Y146964D02*
X512858D01*
X503015D02*
Y151295D01*
X512858D01*
Y146964D02*
Y151295D01*
X54965Y156524D02*
X59295D01*
Y166366D01*
X54965D02*
X59295D01*
X54965Y156524D02*
Y166366D01*
X63965Y156524D02*
X68295D01*
Y166366D01*
X63965D02*
X68295D01*
X63965Y156524D02*
Y166366D01*
X411985Y146457D02*
Y153543D01*
X394787D02*
X411985D01*
X394787Y146457D02*
Y153543D01*
Y146457D02*
X411985D01*
X387858Y146964D02*
Y151295D01*
X378015D02*
X387858D01*
X378015Y146964D02*
Y151295D01*
Y146964D02*
X387858D01*
X54114Y320472D02*
Y346850D01*
X65886D01*
Y320472D02*
Y346850D01*
X54114Y320472D02*
X65886D01*
X501401Y243543D02*
X518599D01*
Y236457D02*
Y243543D01*
X501401Y236457D02*
X518599D01*
X501401D02*
Y243543D01*
X525079Y243036D02*
X534921D01*
Y238705D02*
Y243036D01*
X525079Y238705D02*
X534921D01*
X525079D02*
Y243036D01*
X191035Y163479D02*
Y173321D01*
X195365D01*
Y163479D02*
Y173321D01*
X191035Y163479D02*
X195365D01*
X161309Y346552D02*
X171151D01*
Y342222D02*
Y346552D01*
X161309Y342222D02*
X171151D01*
X161309D02*
Y346552D01*
X126165Y356079D02*
Y365921D01*
X121835Y356079D02*
X126165D01*
X121835D02*
Y365921D01*
X126165D01*
X117921Y321835D02*
Y326165D01*
X108079D02*
X117921D01*
X108079Y321835D02*
Y326165D01*
Y321835D02*
X117921D01*
X378015Y243543D02*
X395213D01*
Y236457D02*
Y243543D01*
X378015Y236457D02*
X395213D01*
X378015D02*
Y243543D01*
X402142Y243036D02*
X411985D01*
Y238705D02*
Y243036D01*
X402142Y238705D02*
X411985D01*
X402142D02*
Y243036D01*
X134386Y172496D02*
Y187504D01*
X126464Y172496D02*
X134386D01*
X126464D02*
Y187504D01*
X134386D01*
X156386Y172653D02*
Y187661D01*
X148464Y172653D02*
X156386D01*
X148464D02*
Y187661D01*
X156386D01*
X145386Y172653D02*
Y187661D01*
X137464Y172653D02*
X145386D01*
X137464D02*
Y187661D01*
X145386D01*
X75039Y202496D02*
X82961D01*
Y217504D01*
X75039D02*
X82961D01*
X75039Y202496D02*
Y217504D01*
X89347Y190039D02*
Y197961D01*
X74339D02*
X89347D01*
X74339Y190039D02*
Y197961D01*
Y190039D02*
X89347D01*
X80496Y242039D02*
Y249961D01*
Y242039D02*
X95504D01*
Y249961D01*
X80496D02*
X95504D01*
X158315Y231638D02*
Y242661D01*
X151622Y231638D02*
X158315D01*
X151622D02*
Y242661D01*
X158315D01*
X75496Y127039D02*
X90504D01*
X75496D02*
Y134961D01*
X90504D01*
Y127039D02*
Y134961D01*
X119496D02*
X134504D01*
Y127039D02*
Y134961D01*
X119496Y127039D02*
X134504D01*
X119496D02*
Y134961D01*
X54496Y192039D02*
Y199961D01*
Y192039D02*
X69504D01*
Y199961D01*
X54496D02*
X69504D01*
X77496Y260039D02*
Y267961D01*
Y260039D02*
X92504D01*
Y267961D01*
X77496D02*
X92504D01*
X181039Y187504D02*
X188961D01*
X181039Y172496D02*
Y187504D01*
Y172496D02*
X188961D01*
Y187504D01*
X177347Y174488D02*
Y185512D01*
X170653Y174488D02*
X177347D01*
X170653D02*
Y185512D01*
X177347D01*
X159441Y334347D02*
X170465D01*
Y327654D02*
Y334347D01*
X159441Y327654D02*
X170465D01*
X159441D02*
Y334347D01*
X116039Y341166D02*
X123961D01*
X116039Y326157D02*
Y341166D01*
Y326157D02*
X123961D01*
Y341166D01*
X54039Y61653D02*
X61961D01*
Y76661D01*
X54039D02*
X61961D01*
X54039Y61653D02*
Y76661D01*
X98309Y327362D02*
Y339961D01*
Y327362D02*
X111691D01*
Y339961D01*
X98309D02*
X111691D01*
M02*
