G04*
G04 #@! TF.GenerationSoftware,Altium Limited,Altium Designer,21.6.4 (81)*
G04*
G04 Layer_Color=8388736*
%FSLAX25Y25*%
%MOIN*%
G70*
G04*
G04 #@! TF.SameCoordinates,D5C6F8BD-756C-4CA3-9184-76241C2A0D58*
G04*
G04*
G04 #@! TF.FilePolarity,Negative*
G04*
G01*
G75*
%ADD20R,0.03985X0.04758*%
%ADD22R,0.03937X0.05906*%
%ADD25R,0.06530X0.02468*%
G04:AMPARAMS|DCode=26|XSize=65.3mil|YSize=24.68mil|CornerRadius=12.34mil|HoleSize=0mil|Usage=FLASHONLY|Rotation=180.000|XOffset=0mil|YOffset=0mil|HoleType=Round|Shape=RoundedRectangle|*
%AMROUNDEDRECTD26*
21,1,0.06530,0.00000,0,0,180.0*
21,1,0.04063,0.02468,0,0,180.0*
1,1,0.02468,-0.02031,0.00000*
1,1,0.02468,0.02031,0.00000*
1,1,0.02468,0.02031,0.00000*
1,1,0.02468,-0.02031,0.00000*
%
%ADD26ROUNDEDRECTD26*%
%ADD29R,0.04758X0.03985*%
%ADD38R,0.15748X0.05906*%
G04:AMPARAMS|DCode=40|XSize=31.82mil|YSize=29.22mil|CornerRadius=14.61mil|HoleSize=0mil|Usage=FLASHONLY|Rotation=0.000|XOffset=0mil|YOffset=0mil|HoleType=Round|Shape=RoundedRectangle|*
%AMROUNDEDRECTD40*
21,1,0.03182,0.00000,0,0,0.0*
21,1,0.00260,0.02922,0,0,0.0*
1,1,0.02922,0.00130,0.00000*
1,1,0.02922,-0.00130,0.00000*
1,1,0.02922,-0.00130,0.00000*
1,1,0.02922,0.00130,0.00000*
%
%ADD40ROUNDEDRECTD40*%
%ADD41R,0.03182X0.02922*%
%ADD42R,0.03150X0.03150*%
%ADD43R,0.03150X0.03150*%
%ADD45R,0.07087X0.08268*%
%ADD48R,0.05315X0.03740*%
%ADD49R,0.03740X0.05315*%
%ADD50R,0.03937X0.02756*%
%ADD51R,0.06312X0.09068*%
%ADD52R,0.07808X0.06784*%
%ADD53R,0.04147X0.03753*%
%ADD54R,0.06115X0.04147*%
%ADD55R,0.04540X0.04343*%
%ADD56R,0.04343X0.04540*%
%ADD57R,0.05131X0.07493*%
%ADD58R,0.03753X0.04147*%
%ADD59R,0.22847X0.09068*%
%ADD60O,0.01981X0.07296*%
%ADD61O,0.07296X0.01981*%
%ADD62O,0.07296X0.03359*%
%ADD63R,0.04147X0.03556*%
%ADD64R,0.03556X0.04147*%
%ADD65R,0.13202X0.08517*%
%ADD66R,0.04383X0.05603*%
%ADD67R,0.09068X0.06312*%
%ADD68R,0.07493X0.05131*%
%ADD69C,0.08280*%
%ADD70R,0.08280X0.08280*%
%ADD71C,0.11929*%
%ADD72C,0.12441*%
%ADD73C,0.06653*%
%ADD74R,0.06653X0.06653*%
%ADD75C,0.06800*%
%ADD76R,0.06800X0.06800*%
%ADD77C,0.06706*%
%ADD78C,0.17335*%
%ADD79R,0.07690X0.07690*%
%ADD80C,0.07690*%
%ADD81C,0.07099*%
%ADD82P,0.10040X4X270.0*%
%ADD83C,0.04934*%
%ADD84R,0.05950X0.05950*%
%ADD85C,0.05950*%
%ADD86C,0.19698*%
%ADD87R,0.07099X0.07099*%
%ADD88C,0.02375*%
D20*
X134000Y232000D02*
D03*
Y238314D02*
D03*
X143437Y232000D02*
D03*
Y238314D02*
D03*
X130425Y183157D02*
D03*
Y176843D02*
D03*
X152425Y183314D02*
D03*
Y177000D02*
D03*
X141425Y183314D02*
D03*
Y177000D02*
D03*
X79000Y213157D02*
D03*
Y206843D02*
D03*
X185000Y176843D02*
D03*
Y183157D02*
D03*
X120000Y330504D02*
D03*
Y336818D02*
D03*
X58000Y72314D02*
D03*
Y66000D02*
D03*
D22*
X210299Y61000D02*
D03*
X197701D02*
D03*
X232299Y14221D02*
D03*
X219701D02*
D03*
X169701D02*
D03*
X182299D02*
D03*
X200701Y334221D02*
D03*
X213299D02*
D03*
X178701Y381000D02*
D03*
X191299D02*
D03*
X237299D02*
D03*
X224701D02*
D03*
D25*
X222845Y91398D02*
D03*
X190155Y303823D02*
D03*
D26*
X222845Y98602D02*
D03*
X215155Y95000D02*
D03*
X190155Y296618D02*
D03*
X197845Y300221D02*
D03*
D29*
X197843Y14000D02*
D03*
X204157D02*
D03*
X211157Y381221D02*
D03*
X204843D02*
D03*
X159803Y322448D02*
D03*
X166117D02*
D03*
X78743Y359300D02*
D03*
X85057D02*
D03*
X85157Y366400D02*
D03*
X78843D02*
D03*
X78686Y194000D02*
D03*
X85000D02*
D03*
X91157Y246000D02*
D03*
X84843D02*
D03*
X86157Y131000D02*
D03*
X79843D02*
D03*
X123843D02*
D03*
X130157D02*
D03*
X65157Y196000D02*
D03*
X58843D02*
D03*
X88157Y264000D02*
D03*
X81843D02*
D03*
D38*
X140000Y326575D02*
D03*
Y340748D02*
D03*
D40*
X271614Y240000D02*
D03*
X276772Y150000D02*
D03*
X521772D02*
D03*
X396772D02*
D03*
X516614Y240000D02*
D03*
X393228D02*
D03*
D41*
X258386D02*
D03*
X290000Y150000D02*
D03*
X535000D02*
D03*
X410000D02*
D03*
X503386Y240000D02*
D03*
X380000D02*
D03*
D42*
X288402Y240870D02*
D03*
X282497D02*
D03*
X265889Y149130D02*
D03*
X259984D02*
D03*
X510889D02*
D03*
X504984D02*
D03*
X379984D02*
D03*
X385889D02*
D03*
X527047Y240870D02*
D03*
X532953D02*
D03*
X163277Y344387D02*
D03*
X169183D02*
D03*
X110047Y324000D02*
D03*
X115953D02*
D03*
X404111Y240870D02*
D03*
X410016D02*
D03*
D43*
X57130Y164398D02*
D03*
Y158492D02*
D03*
X66130Y164398D02*
D03*
Y158492D02*
D03*
X193200Y165447D02*
D03*
Y171353D02*
D03*
X124000Y363953D02*
D03*
Y358047D02*
D03*
D45*
X60000Y325000D02*
D03*
Y342323D02*
D03*
D48*
X154969Y240102D02*
D03*
Y234197D02*
D03*
X174000Y182953D02*
D03*
Y177047D02*
D03*
D49*
X162000Y331000D02*
D03*
X167905D02*
D03*
D50*
X109329Y337402D02*
D03*
Y333661D02*
D03*
Y329921D02*
D03*
X100671D02*
D03*
Y333661D02*
D03*
Y337402D02*
D03*
D51*
X69858Y247913D02*
D03*
Y212087D02*
D03*
X52142D02*
D03*
Y247913D02*
D03*
X69858Y265087D02*
D03*
Y300913D02*
D03*
X52142D02*
D03*
Y265087D02*
D03*
D52*
X209000Y112264D02*
D03*
X189000D02*
D03*
X199000D02*
D03*
X209000Y147736D02*
D03*
X189000D02*
D03*
X199000D02*
D03*
X197000Y282957D02*
D03*
X217000D02*
D03*
X207000D02*
D03*
X197000Y247484D02*
D03*
X217000D02*
D03*
X207000D02*
D03*
D53*
Y171000D02*
D03*
Y165882D02*
D03*
X74600Y103341D02*
D03*
Y108459D02*
D03*
X80000Y271441D02*
D03*
Y276559D02*
D03*
X57130Y176886D02*
D03*
Y182004D02*
D03*
X66130Y176886D02*
D03*
Y182004D02*
D03*
X193000Y181000D02*
D03*
Y175882D02*
D03*
X124000Y347441D02*
D03*
Y352559D02*
D03*
D54*
X180000Y95498D02*
D03*
Y89002D02*
D03*
X219000Y299722D02*
D03*
Y306218D02*
D03*
X174000Y171248D02*
D03*
Y164752D02*
D03*
D55*
X222000Y34799D02*
D03*
X222000Y47201D02*
D03*
X184000D02*
D03*
X184000Y34799D02*
D03*
X210000D02*
D03*
X210000Y47201D02*
D03*
X197000D02*
D03*
X197000Y34799D02*
D03*
X187000Y360421D02*
D03*
X187000Y348020D02*
D03*
X200000Y360421D02*
D03*
X200000Y348020D02*
D03*
X212000D02*
D03*
X212000Y360421D02*
D03*
X226000Y348020D02*
D03*
X226000Y360421D02*
D03*
D56*
X212799Y76698D02*
D03*
X225201Y76698D02*
D03*
X184799Y318522D02*
D03*
X197201Y318522D02*
D03*
D57*
X184118Y77000D02*
D03*
X173882D02*
D03*
X226118Y318221D02*
D03*
X215882D02*
D03*
D58*
X205000Y237221D02*
D03*
X210118D02*
D03*
X74418Y353400D02*
D03*
X69300D02*
D03*
X282441Y230000D02*
D03*
X287559D02*
D03*
X260441Y160000D02*
D03*
X265559D02*
D03*
X505441D02*
D03*
X510559D02*
D03*
X380000D02*
D03*
X385118D02*
D03*
X527441Y230000D02*
D03*
X532559D02*
D03*
X163671Y338387D02*
D03*
X168789D02*
D03*
X106000Y324000D02*
D03*
X100882D02*
D03*
X405000Y230000D02*
D03*
X410118D02*
D03*
D59*
X123701Y153000D02*
D03*
X86299D02*
D03*
D60*
X96173Y201972D02*
D03*
X98142D02*
D03*
X100110D02*
D03*
X102079D02*
D03*
X104047D02*
D03*
X106016D02*
D03*
X107984D02*
D03*
X109953D02*
D03*
X111921D02*
D03*
X113890D02*
D03*
X115858D02*
D03*
X117827D02*
D03*
Y236028D02*
D03*
X115858D02*
D03*
X113890D02*
D03*
X111921D02*
D03*
X109953D02*
D03*
X107984D02*
D03*
X106016D02*
D03*
X104047D02*
D03*
X102079D02*
D03*
X100110D02*
D03*
X98142D02*
D03*
X96173D02*
D03*
D61*
X124028Y208173D02*
D03*
Y210142D02*
D03*
Y212110D02*
D03*
Y214079D02*
D03*
Y216047D02*
D03*
Y218016D02*
D03*
Y219984D02*
D03*
Y221953D02*
D03*
Y223921D02*
D03*
Y225890D02*
D03*
Y227858D02*
D03*
Y229827D02*
D03*
X89972D02*
D03*
Y227858D02*
D03*
Y225890D02*
D03*
Y223921D02*
D03*
Y221953D02*
D03*
Y219984D02*
D03*
Y218016D02*
D03*
Y216047D02*
D03*
Y214079D02*
D03*
Y212110D02*
D03*
Y210142D02*
D03*
Y208173D02*
D03*
D62*
X234878Y222500D02*
D03*
Y217500D02*
D03*
Y212500D02*
D03*
Y207500D02*
D03*
Y202500D02*
D03*
Y197500D02*
D03*
Y192500D02*
D03*
Y187500D02*
D03*
X257122Y222500D02*
D03*
Y217500D02*
D03*
Y212500D02*
D03*
Y207500D02*
D03*
Y202500D02*
D03*
Y197500D02*
D03*
Y192500D02*
D03*
Y187500D02*
D03*
D63*
X169949Y190000D02*
D03*
X176051D02*
D03*
D64*
X154100Y348251D02*
D03*
Y342149D02*
D03*
D65*
X75000Y323996D02*
D03*
Y343327D02*
D03*
D66*
X155793Y313387D02*
D03*
X168667D02*
D03*
D67*
X90000Y326339D02*
D03*
Y343661D02*
D03*
D68*
X162589Y185061D02*
D03*
Y174824D02*
D03*
X164634Y240490D02*
D03*
Y230253D02*
D03*
X135000Y348543D02*
D03*
Y358780D02*
D03*
X145000Y348543D02*
D03*
Y358780D02*
D03*
D69*
X292032Y284256D02*
D03*
Y343311D02*
D03*
Y362996D02*
D03*
Y382681D02*
D03*
X262504D02*
D03*
Y362996D02*
D03*
Y343311D02*
D03*
X272504Y110744D02*
D03*
Y51689D02*
D03*
Y32004D02*
D03*
Y12319D02*
D03*
X302031D02*
D03*
Y32004D02*
D03*
Y51689D02*
D03*
D70*
X262504Y284256D02*
D03*
X302031Y110744D02*
D03*
D71*
X535032Y61000D02*
D03*
X414035Y61020D02*
D03*
X453024Y333980D02*
D03*
X330996D02*
D03*
D72*
X465031Y51000D02*
D03*
X344035Y51020D02*
D03*
X523024Y343980D02*
D03*
X400996D02*
D03*
D73*
X480031Y111000D02*
D03*
X359035Y111020D02*
D03*
X508024Y283980D02*
D03*
X385996D02*
D03*
D74*
X520031Y111000D02*
D03*
X399035Y111020D02*
D03*
X468024Y283980D02*
D03*
X345996D02*
D03*
D75*
X105200Y303600D02*
D03*
Y343600D02*
D03*
Y383600D02*
D03*
X145200Y303600D02*
D03*
Y383600D02*
D03*
D76*
X165200Y303600D02*
D03*
D77*
X20866Y41653D02*
D03*
Y61654D02*
D03*
Y81653D02*
D03*
Y101654D02*
D03*
Y121653D02*
D03*
Y141654D02*
D03*
Y161653D02*
D03*
Y181653D02*
D03*
Y201654D02*
D03*
Y221654D02*
D03*
Y241653D02*
D03*
Y261653D02*
D03*
Y281653D02*
D03*
Y301654D02*
D03*
Y321654D02*
D03*
Y341653D02*
D03*
X40866Y41653D02*
D03*
Y61654D02*
D03*
Y81653D02*
D03*
Y101654D02*
D03*
Y121653D02*
D03*
Y141654D02*
D03*
Y161653D02*
D03*
Y181653D02*
D03*
Y201654D02*
D03*
Y221654D02*
D03*
Y241653D02*
D03*
Y261653D02*
D03*
Y281653D02*
D03*
Y301654D02*
D03*
Y321654D02*
D03*
Y341653D02*
D03*
X59400Y101058D02*
D03*
Y133342D02*
D03*
D78*
X10866Y371654D02*
D03*
Y21654D02*
D03*
D79*
X589653Y43465D02*
D03*
Y263142D02*
D03*
Y153465D02*
D03*
D80*
X568000Y43465D02*
D03*
X589653Y60000D02*
D03*
X568000D02*
D03*
X589653Y76535D02*
D03*
X568000D02*
D03*
X589653Y93071D02*
D03*
X568000D02*
D03*
X589653Y109606D02*
D03*
X568000D02*
D03*
X589653Y126142D02*
D03*
X568000D02*
D03*
Y263142D02*
D03*
X589653Y279677D02*
D03*
X568000D02*
D03*
X589653Y296213D02*
D03*
X568000D02*
D03*
X589653Y312748D02*
D03*
X568000D02*
D03*
X589653Y329283D02*
D03*
X568000D02*
D03*
X589653Y345819D02*
D03*
X568000D02*
D03*
Y236142D02*
D03*
X589653D02*
D03*
X568000Y219606D02*
D03*
X589653D02*
D03*
X568000Y203071D02*
D03*
X589653D02*
D03*
X568000Y186535D02*
D03*
X589653D02*
D03*
X568000Y170000D02*
D03*
X589653D02*
D03*
X568000Y153465D02*
D03*
D81*
X50422Y350722D02*
D03*
X57493Y357793D02*
D03*
X71636Y371936D02*
D03*
X78707Y379007D02*
D03*
X64565Y364864D02*
D03*
X141842Y23000D02*
D03*
D82*
X85778Y386078D02*
D03*
D83*
X123000Y281500D02*
D03*
Y286500D02*
D03*
X128000Y281500D02*
D03*
X133000D02*
D03*
X128000Y286500D02*
D03*
X133000D02*
D03*
X138000Y281500D02*
D03*
X143000D02*
D03*
X138000Y286500D02*
D03*
X143000D02*
D03*
D84*
X59400Y109326D02*
D03*
D85*
Y117200D02*
D03*
Y125074D02*
D03*
D86*
X615866Y371850D02*
D03*
Y21850D02*
D03*
D87*
X122158Y23000D02*
D03*
D88*
X148857Y253728D02*
D03*
Y249000D02*
D03*
X60600Y211700D02*
D03*
X70300Y256600D02*
D03*
X174000Y330000D02*
D03*
Y324500D02*
D03*
Y320500D02*
D03*
Y316000D02*
D03*
Y311500D02*
D03*
X258400Y231200D02*
D03*
X497500Y240000D02*
D03*
X74500Y229900D02*
D03*
X60000Y245000D02*
D03*
X79000Y202496D02*
D03*
X70000Y192500D02*
D03*
X65600Y187700D02*
D03*
X70000Y122500D02*
D03*
X85000Y190000D02*
D03*
X60000Y300000D02*
D03*
X51800Y309400D02*
D03*
X100000Y247000D02*
D03*
X84700Y252400D02*
D03*
X88300Y259300D02*
D03*
X95000Y230000D02*
D03*
X74500Y234425D02*
D03*
X74400Y238400D02*
D03*
X60000Y267500D02*
D03*
X75750Y297650D02*
D03*
X128070Y307500D02*
D03*
X120196D02*
D03*
X520000Y230000D02*
D03*
X372500Y240000D02*
D03*
X400000Y230000D02*
D03*
X274163Y226663D02*
D03*
X390000Y160000D02*
D03*
X402500Y142500D02*
D03*
X535000Y145000D02*
D03*
X269800Y160000D02*
D03*
X295000Y150000D02*
D03*
X515000Y160000D02*
D03*
X257122Y180122D02*
D03*
X234878Y181122D02*
D03*
X105997Y214003D02*
D03*
X104983Y211965D02*
D03*
X114051Y209051D02*
D03*
X192000Y215000D02*
D03*
Y212000D02*
D03*
X137714Y222000D02*
D03*
X162286D02*
D03*
X153714D02*
D03*
X158000D02*
D03*
X142000D02*
D03*
X133429D02*
D03*
X162286Y216000D02*
D03*
X158000D02*
D03*
X149429D02*
D03*
X153714D02*
D03*
X157429Y253728D02*
D03*
X153143D02*
D03*
X166000D02*
D03*
X161714D02*
D03*
X136000D02*
D03*
X140286D02*
D03*
X144571D02*
D03*
X140286Y249000D02*
D03*
X144571D02*
D03*
X136000D02*
D03*
X157429D02*
D03*
X153143D02*
D03*
X161714D02*
D03*
X166000D02*
D03*
X140286Y243000D02*
D03*
X136000D02*
D03*
X148857D02*
D03*
X144571D02*
D03*
X114000Y283000D02*
D03*
X117000Y280000D02*
D03*
X201000Y255000D02*
D03*
X188000Y97000D02*
D03*
X169000Y78000D02*
D03*
X207000Y175000D02*
D03*
X216000Y148000D02*
D03*
X96300Y23000D02*
D03*
X118800Y194800D02*
D03*
X95600Y83200D02*
D03*
X113500Y72200D02*
D03*
X95500Y227700D02*
D03*
X57200Y187600D02*
D03*
X74500Y84600D02*
D03*
X79800Y124300D02*
D03*
X74500Y97300D02*
D03*
X57100Y153600D02*
D03*
X75100Y58700D02*
D03*
X65900Y153700D02*
D03*
X96574Y307500D02*
D03*
X88700D02*
D03*
X92637Y315374D02*
D03*
X100511D02*
D03*
X112322Y307500D02*
D03*
X116259Y315374D02*
D03*
X108385D02*
D03*
X124133D02*
D03*
X132007D02*
D03*
X121300Y324000D02*
D03*
X104900Y363800D02*
D03*
X126426Y377000D02*
D03*
X204500Y230200D02*
D03*
X197000Y235900D02*
D03*
X139881Y315374D02*
D03*
X181418Y296618D02*
D03*
X197100Y311800D02*
D03*
X91000Y252100D02*
D03*
X61900Y182000D02*
D03*
X74600Y224400D02*
D03*
X78500Y173400D02*
D03*
X78300Y112700D02*
D03*
X130000Y123500D02*
D03*
X169800Y160600D02*
D03*
X173250D02*
D03*
X176700D02*
D03*
X173250Y157400D02*
D03*
X169700D02*
D03*
X176700D02*
D03*
X163000Y191200D02*
D03*
X170100Y194400D02*
D03*
X163100D02*
D03*
X166650D02*
D03*
X170100Y197600D02*
D03*
X166650D02*
D03*
X163200D02*
D03*
X158300Y328242D02*
D03*
X154800Y328549D02*
D03*
X158300Y331428D02*
D03*
X154800Y331599D02*
D03*
Y322448D02*
D03*
Y325499D02*
D03*
Y334650D02*
D03*
X158300Y337800D02*
D03*
Y334614D02*
D03*
X154800Y337700D02*
D03*
X147755Y315374D02*
D03*
X135944Y307500D02*
D03*
X153985Y384874D02*
D03*
X150048Y377000D02*
D03*
X142174D02*
D03*
X138237Y384874D02*
D03*
X134300Y377000D02*
D03*
X130363Y384874D02*
D03*
X122489D02*
D03*
X118552Y377000D02*
D03*
X52200Y256500D02*
D03*
M02*
