G04*
G04 #@! TF.GenerationSoftware,Altium Limited,Altium Designer,21.6.4 (81)*
G04*
G04 Layer_Physical_Order=4*
G04 Layer_Color=16711680*
%FSLAX25Y25*%
%MOIN*%
G70*
G04*
G04 #@! TF.SameCoordinates,D5C6F8BD-756C-4CA3-9184-76241C2A0D58*
G04*
G04*
G04 #@! TF.FilePolarity,Positive*
G04*
G01*
G75*
%ADD16C,0.01000*%
%ADD20R,0.03985X0.04758*%
%ADD31R,0.02953X0.03347*%
%ADD71C,0.11929*%
%ADD72C,0.12441*%
%ADD73C,0.06653*%
%ADD74R,0.06653X0.06653*%
%ADD90C,0.02500*%
%ADD91C,0.10000*%
%ADD92C,0.02000*%
%ADD93C,0.07480*%
%ADD94R,0.07480X0.07480*%
%ADD95C,0.06000*%
%ADD96R,0.06000X0.06000*%
%ADD97C,0.05906*%
%ADD98C,0.16535*%
%ADD99R,0.06890X0.06890*%
%ADD100C,0.06890*%
%ADD101C,0.06299*%
%ADD102P,0.08908X4X270.0*%
%ADD103C,0.04134*%
%ADD104R,0.05150X0.05150*%
%ADD105C,0.05150*%
%ADD106C,0.18898*%
%ADD107R,0.06299X0.06299*%
%ADD108C,0.01575*%
G04:AMPARAMS|DCode=130|XSize=61.02mil|YSize=23.62mil|CornerRadius=2.01mil|HoleSize=0mil|Usage=FLASHONLY|Rotation=0.000|XOffset=0mil|YOffset=0mil|HoleType=Round|Shape=RoundedRectangle|*
%AMROUNDEDRECTD130*
21,1,0.06102,0.01961,0,0,0.0*
21,1,0.05701,0.02362,0,0,0.0*
1,1,0.00402,0.02850,-0.00980*
1,1,0.00402,-0.02850,-0.00980*
1,1,0.00402,-0.02850,0.00980*
1,1,0.00402,0.02850,0.00980*
%
%ADD130ROUNDEDRECTD130*%
G36*
X435000Y390000D02*
X435739Y390000D01*
X437188Y389712D01*
X438553Y389146D01*
X439781Y388326D01*
X440826Y387281D01*
X441646Y386052D01*
X442212Y384688D01*
X442500Y383239D01*
X442500Y382500D01*
X442500Y382500D01*
X442500Y382500D01*
Y327500D01*
X442524Y327010D01*
X442715Y326049D01*
X443090Y325143D01*
X443635Y324328D01*
X444328Y323635D01*
X445143Y323090D01*
X446048Y322715D01*
X447010Y322524D01*
X447500Y322500D01*
X447500Y322500D01*
X455000Y322500D01*
X572500D01*
X600000Y322500D01*
X600497Y322500D01*
X601416Y322119D01*
X602119Y321416D01*
X602500Y320497D01*
X602500Y320000D01*
X602500Y320000D01*
X602500Y320000D01*
X602500Y309974D01*
X602500Y309484D01*
X602122Y308579D01*
X601425Y307889D01*
X600516Y307521D01*
X600026Y307526D01*
X600026Y307526D01*
X600026Y307526D01*
X377630Y309842D01*
X377123Y309848D01*
X376130Y310055D01*
X375196Y310450D01*
X374356Y311019D01*
X373643Y311740D01*
X373082Y312586D01*
X372697Y313524D01*
X372500Y314519D01*
X372500Y315026D01*
Y385000D01*
Y385492D01*
X372692Y386458D01*
X373069Y387368D01*
X373616Y388187D01*
X374313Y388884D01*
X375132Y389431D01*
X376042Y389808D01*
X377007Y390000D01*
X377500Y390000D01*
X377500Y390000D01*
X435000Y390000D01*
D02*
G37*
G36*
X359688Y387212D02*
X361053Y386647D01*
X362281Y385826D01*
X363326Y384781D01*
X364146Y383553D01*
X364712Y382188D01*
X365000Y380739D01*
X365000Y380000D01*
X365000D01*
X365000Y380000D01*
Y312532D01*
X365024Y312036D01*
X365216Y311064D01*
X365592Y310147D01*
X366139Y309321D01*
X366835Y308616D01*
X367655Y308059D01*
X368567Y307671D01*
X369536Y307467D01*
X370031Y307436D01*
X562500Y305000D01*
X600000Y305000D01*
X600497Y305000D01*
X601416Y304619D01*
X602119Y303916D01*
X602500Y302997D01*
X602500Y302500D01*
X602500Y302500D01*
X602500Y302500D01*
X602500Y287500D01*
X602500Y287003D01*
X602119Y286084D01*
X601416Y285380D01*
X600497Y285000D01*
X600000Y285000D01*
X532695D01*
X531046Y285328D01*
X529492Y285971D01*
X528094Y286906D01*
X527500Y287500D01*
X526879Y288063D01*
X525488Y288992D01*
X523942Y289633D01*
X522301Y289959D01*
X521464Y290000D01*
X521464Y290000D01*
X521464Y290000D01*
X312500D01*
X311515Y290000D01*
X309583Y290384D01*
X307763Y291138D01*
X306125Y292232D01*
X304732Y293625D01*
X303638Y295263D01*
X302884Y297083D01*
X302500Y299015D01*
X302500Y300000D01*
Y380000D01*
X302500Y380739D01*
X302788Y382188D01*
X303354Y383553D01*
X304174Y384781D01*
X305219Y385826D01*
X306447Y386646D01*
X307812Y387212D01*
X309261Y387500D01*
X310000D01*
X310000Y387500D01*
X357500Y387500D01*
X358239Y387500D01*
X359688Y387212D01*
D02*
G37*
G36*
X188100Y273900D02*
X188100Y273900D01*
X188101D01*
X188559Y273850D01*
X189063Y273641D01*
X189541Y273163D01*
X189800Y272538D01*
X189800Y272200D01*
Y256224D01*
X180578D01*
X180110Y256130D01*
X179713Y255865D01*
X134071Y210224D01*
X114982D01*
X114893Y210312D01*
X114347Y210538D01*
X113755D01*
X113208Y210312D01*
X112790Y209893D01*
X112718Y209719D01*
X112128Y209602D01*
X107484Y214246D01*
Y214299D01*
X107258Y214846D01*
X106839Y215264D01*
X106293Y215491D01*
X105701D01*
X105154Y215264D01*
X104736Y214846D01*
X104509Y214299D01*
Y213707D01*
X104625Y213427D01*
X104140Y213226D01*
X103722Y212808D01*
X103495Y212261D01*
Y211669D01*
X103722Y211123D01*
X104140Y210704D01*
X104687Y210478D01*
X104792D01*
X112135Y203135D01*
X112532Y202870D01*
X113000Y202777D01*
X184000D01*
X184468Y202870D01*
X184865Y203135D01*
X189338Y207608D01*
X189800Y207416D01*
X189800Y180000D01*
X189800Y169641D01*
X189678Y169347D01*
X189453Y169122D01*
X189159Y169000D01*
X143066D01*
Y171757D01*
X142973Y172226D01*
X142708Y172623D01*
X120287Y195043D01*
Y195096D01*
X120061Y195642D01*
X119642Y196061D01*
X119096Y196287D01*
X118504D01*
X117957Y196061D01*
X117539Y195642D01*
X117313Y195096D01*
Y194504D01*
X117539Y193957D01*
X117957Y193539D01*
X118504Y193313D01*
X118557D01*
X140619Y171251D01*
Y169000D01*
X101724D01*
Y229214D01*
X101630Y229682D01*
X101365Y230079D01*
X100579Y230865D01*
X100182Y231130D01*
X99714Y231224D01*
X95880D01*
X95842Y231261D01*
X95296Y231487D01*
X94704D01*
X94157Y231261D01*
X93739Y230842D01*
X93513Y230296D01*
Y229704D01*
X93590Y229519D01*
X93293Y228950D01*
X93246Y228940D01*
X93221Y228924D01*
X91420D01*
X90952Y228830D01*
X90555Y228565D01*
X89969Y227979D01*
X89704Y227582D01*
X89611Y227114D01*
Y169000D01*
X77500D01*
X77241Y169000D01*
X76764Y169198D01*
X76398Y169564D01*
X76200Y170041D01*
X76200Y170300D01*
X76200Y261900D01*
Y273200D01*
X76200Y273339D01*
X76306Y273597D01*
X76503Y273793D01*
X76761Y273900D01*
X76900Y273900D01*
X78600Y273900D01*
X108516D01*
X108708Y273438D01*
X99135Y263865D01*
X98870Y263468D01*
X98777Y263000D01*
Y247880D01*
X98739Y247843D01*
X98513Y247296D01*
Y246704D01*
X98739Y246158D01*
X99158Y245739D01*
X99704Y245513D01*
X100296D01*
X100842Y245739D01*
X101261Y246158D01*
X101487Y246704D01*
Y247296D01*
X101261Y247843D01*
X101224Y247880D01*
Y262493D01*
X112630Y273900D01*
X188100D01*
X188100Y273900D01*
D02*
G37*
G36*
X601490Y104646D02*
X602145Y103990D01*
X602500Y103135D01*
X602500Y102671D01*
X602500Y102671D01*
X602500Y102671D01*
X602500Y90000D01*
X602500Y89503D01*
X602119Y88584D01*
X601416Y87881D01*
X600497Y87500D01*
X600000Y87500D01*
X548535Y87500D01*
X547821Y87483D01*
X546397Y87342D01*
X544995Y87063D01*
X543627Y86648D01*
X542306Y86101D01*
X541044Y85427D01*
X539855Y84633D01*
X538750Y83725D01*
X538232Y83232D01*
X538232Y83232D01*
X538232Y83232D01*
X517500Y62500D01*
X516906Y61905D01*
X515508Y60971D01*
X513954Y60328D01*
X512305Y60000D01*
X511464Y60000D01*
X450000Y60000D01*
X449510Y59976D01*
X448549Y59785D01*
X447643Y59410D01*
X446828Y58865D01*
X446135Y58172D01*
X445590Y57357D01*
X445215Y56451D01*
X445024Y55490D01*
X445000Y55000D01*
X445000Y55000D01*
X445000Y55000D01*
X445000Y50000D01*
X445000Y49507D01*
X444808Y48542D01*
X444431Y47631D01*
X443884Y46812D01*
X443188Y46116D01*
X442369Y45569D01*
X441459Y45192D01*
X440492Y45000D01*
X440000Y45000D01*
X404571D01*
X404029Y45000D01*
X402950Y45106D01*
X401886Y45318D01*
X400849Y45632D01*
X399847Y46047D01*
X398891Y46559D01*
X397989Y47161D01*
X397151Y47849D01*
X396768Y48232D01*
Y48232D01*
X396262Y48738D01*
X395353Y49845D01*
X394558Y51035D01*
X393883Y52298D01*
X393335Y53621D01*
X392920Y54991D01*
X392640Y56395D01*
X392500Y57819D01*
X392500Y58535D01*
X392500Y100000D01*
Y100492D01*
X392692Y101458D01*
X393069Y102368D01*
X393616Y103187D01*
X394313Y103884D01*
X395132Y104431D01*
X396041Y104808D01*
X397007Y105000D01*
X397500D01*
X397500Y105000D01*
X600171Y105000D01*
X600635Y105000D01*
X601490Y104646D01*
D02*
G37*
G36*
X601416Y84619D02*
X602119Y83916D01*
X602500Y82997D01*
X602500Y82500D01*
X602500Y82500D01*
X602500Y82500D01*
X602500Y70000D01*
Y69503D01*
X602119Y68584D01*
X601416Y67881D01*
X600497Y67500D01*
X600000D01*
Y67500D01*
X562500Y67500D01*
X562315Y67482D01*
X561973Y67340D01*
X561711Y67079D01*
X561570Y66737D01*
X561552Y66552D01*
Y14052D01*
Y13653D01*
X561396Y12870D01*
X561091Y12133D01*
X560647Y11469D01*
X560083Y10904D01*
X559419Y10461D01*
X558682Y10156D01*
X557899Y10000D01*
X557500D01*
X337500Y10000D01*
X336795Y10101D01*
X335434Y10526D01*
X334160Y11163D01*
X333004Y11996D01*
X331996Y13004D01*
X331163Y14160D01*
X330526Y15434D01*
X330101Y16795D01*
X330000Y17500D01*
Y60000D01*
Y60497D01*
X330381Y61416D01*
X331084Y62119D01*
X332003Y62500D01*
X332500D01*
X332500Y62500D01*
X371464Y62500D01*
X372180Y62500D01*
X373605Y62360D01*
X375009Y62080D01*
X376379Y61665D01*
X377702Y61117D01*
X378964Y60442D01*
X380155Y59647D01*
X381262Y58738D01*
X381768Y58232D01*
X381768Y58232D01*
X381768Y58232D01*
X393964Y46036D01*
X394697Y45338D01*
X396260Y44055D01*
X397942Y42932D01*
X399725Y41978D01*
X401593Y41205D01*
X403528Y40618D01*
X405512Y40223D01*
X407524Y40025D01*
X408535Y40000D01*
X540000D01*
X540490Y40024D01*
X541451Y40215D01*
X542357Y40590D01*
X543172Y41135D01*
X543865Y41828D01*
X544410Y42643D01*
X544785Y43549D01*
X544976Y44510D01*
X545000Y45000D01*
Y82500D01*
Y82997D01*
X545381Y83916D01*
X546084Y84619D01*
X547003Y85000D01*
X547500D01*
X547500Y85000D01*
X600000Y85000D01*
X600497Y85000D01*
X601416Y84619D01*
D02*
G37*
%LPC*%
G36*
X88596Y260787D02*
X88004D01*
X87458Y260561D01*
X87039Y260142D01*
X86813Y259596D01*
Y259004D01*
X87039Y258457D01*
X87458Y258039D01*
X88004Y257813D01*
X88596D01*
X89143Y258039D01*
X89561Y258457D01*
X89787Y259004D01*
Y259596D01*
X89561Y260142D01*
X89143Y260561D01*
X88596Y260787D01*
D02*
G37*
G36*
X166500Y255455D02*
Y254228D01*
X167727D01*
X167515Y254740D01*
X167012Y255243D01*
X166500Y255455D01*
D02*
G37*
G36*
X165500D02*
X164988Y255243D01*
X164485Y254740D01*
X164272Y254228D01*
X165500D01*
Y255455D01*
D02*
G37*
G36*
X162214D02*
Y254228D01*
X163442D01*
X163230Y254740D01*
X162727Y255243D01*
X162214Y255455D01*
D02*
G37*
G36*
X161214D02*
X160702Y255243D01*
X160199Y254740D01*
X159987Y254228D01*
X161214D01*
Y255455D01*
D02*
G37*
G36*
X157929D02*
Y254228D01*
X159156D01*
X158944Y254740D01*
X158441Y255243D01*
X157929Y255455D01*
D02*
G37*
G36*
X156929D02*
X156416Y255243D01*
X155913Y254740D01*
X155701Y254228D01*
X156929D01*
Y255455D01*
D02*
G37*
G36*
X153643D02*
Y254228D01*
X154870D01*
X154658Y254740D01*
X154155Y255243D01*
X153643Y255455D01*
D02*
G37*
G36*
X152643D02*
X152130Y255243D01*
X151628Y254740D01*
X151415Y254228D01*
X152643D01*
Y255455D01*
D02*
G37*
G36*
X149357D02*
Y254228D01*
X150585D01*
X150372Y254740D01*
X149870Y255243D01*
X149357Y255455D01*
D02*
G37*
G36*
X148357D02*
X147845Y255243D01*
X147342Y254740D01*
X147130Y254228D01*
X148357D01*
Y255455D01*
D02*
G37*
G36*
X145071D02*
Y254228D01*
X146299D01*
X146087Y254740D01*
X145584Y255243D01*
X145071Y255455D01*
D02*
G37*
G36*
X144071D02*
X143559Y255243D01*
X143056Y254740D01*
X142844Y254228D01*
X144071D01*
Y255455D01*
D02*
G37*
G36*
X140786D02*
Y254228D01*
X142013D01*
X141801Y254740D01*
X141298Y255243D01*
X140786Y255455D01*
D02*
G37*
G36*
X139786D02*
X139273Y255243D01*
X138770Y254740D01*
X138558Y254228D01*
X139786D01*
Y255455D01*
D02*
G37*
G36*
X136500D02*
Y254228D01*
X137728D01*
X137515Y254740D01*
X137013Y255243D01*
X136500Y255455D01*
D02*
G37*
G36*
X135500D02*
X134987Y255243D01*
X134485Y254740D01*
X134272Y254228D01*
X135500D01*
Y255455D01*
D02*
G37*
G36*
X85200Y254128D02*
Y252900D01*
X86428D01*
X86215Y253413D01*
X85712Y253915D01*
X85200Y254128D01*
D02*
G37*
G36*
X84200D02*
X83688Y253915D01*
X83185Y253413D01*
X82972Y252900D01*
X84200D01*
Y254128D01*
D02*
G37*
G36*
X167727Y253228D02*
X166500D01*
Y252000D01*
X167012Y252212D01*
X167515Y252715D01*
X167727Y253228D01*
D02*
G37*
G36*
X165500D02*
X164272D01*
X164485Y252715D01*
X164988Y252212D01*
X165500Y252000D01*
Y253228D01*
D02*
G37*
G36*
X163442D02*
X162214D01*
Y252000D01*
X162727Y252212D01*
X163230Y252715D01*
X163442Y253228D01*
D02*
G37*
G36*
X161214D02*
X159987D01*
X160199Y252715D01*
X160702Y252212D01*
X161214Y252000D01*
Y253228D01*
D02*
G37*
G36*
X159156D02*
X157929D01*
Y252000D01*
X158441Y252212D01*
X158944Y252715D01*
X159156Y253228D01*
D02*
G37*
G36*
X156929D02*
X155701D01*
X155913Y252715D01*
X156416Y252212D01*
X156929Y252000D01*
Y253228D01*
D02*
G37*
G36*
X154870D02*
X153643D01*
Y252000D01*
X154155Y252212D01*
X154658Y252715D01*
X154870Y253228D01*
D02*
G37*
G36*
X152643D02*
X151415D01*
X151628Y252715D01*
X152130Y252212D01*
X152643Y252000D01*
Y253228D01*
D02*
G37*
G36*
X150585D02*
X149357D01*
Y252000D01*
X149870Y252212D01*
X150372Y252715D01*
X150585Y253228D01*
D02*
G37*
G36*
X148357D02*
X147130D01*
X147342Y252715D01*
X147845Y252212D01*
X148357Y252000D01*
Y253228D01*
D02*
G37*
G36*
X146299D02*
X145071D01*
Y252000D01*
X145584Y252212D01*
X146087Y252715D01*
X146299Y253228D01*
D02*
G37*
G36*
X144071D02*
X142844D01*
X143056Y252715D01*
X143559Y252212D01*
X144071Y252000D01*
Y253228D01*
D02*
G37*
G36*
X142013D02*
X140786D01*
Y252000D01*
X141298Y252212D01*
X141801Y252715D01*
X142013Y253228D01*
D02*
G37*
G36*
X139786D02*
X138558D01*
X138770Y252715D01*
X139273Y252212D01*
X139786Y252000D01*
Y253228D01*
D02*
G37*
G36*
X137728D02*
X136500D01*
Y252000D01*
X137013Y252212D01*
X137515Y252715D01*
X137728Y253228D01*
D02*
G37*
G36*
X135500D02*
X134272D01*
X134485Y252715D01*
X134987Y252212D01*
X135500Y252000D01*
Y253228D01*
D02*
G37*
G36*
X86428Y251900D02*
X85200D01*
Y250672D01*
X85712Y250885D01*
X86215Y251388D01*
X86428Y251900D01*
D02*
G37*
G36*
X84200D02*
X82972D01*
X83185Y251388D01*
X83688Y250885D01*
X84200Y250672D01*
Y251900D01*
D02*
G37*
G36*
X91296Y253587D02*
X90704D01*
X90158Y253361D01*
X89739Y252942D01*
X89513Y252396D01*
Y251804D01*
X89739Y251257D01*
X90158Y250839D01*
X90704Y250613D01*
X91296D01*
X91843Y250839D01*
X92261Y251257D01*
X92487Y251804D01*
Y252396D01*
X92261Y252942D01*
X91843Y253361D01*
X91296Y253587D01*
D02*
G37*
G36*
X166500Y250728D02*
Y249500D01*
X167727D01*
X167515Y250012D01*
X167012Y250515D01*
X166500Y250728D01*
D02*
G37*
G36*
X165500D02*
X164988Y250515D01*
X164485Y250012D01*
X164272Y249500D01*
X165500D01*
Y250728D01*
D02*
G37*
G36*
X162214D02*
Y249500D01*
X163442D01*
X163230Y250012D01*
X162727Y250515D01*
X162214Y250728D01*
D02*
G37*
G36*
X161214D02*
X160702Y250515D01*
X160199Y250012D01*
X159987Y249500D01*
X161214D01*
Y250728D01*
D02*
G37*
G36*
X157929D02*
Y249500D01*
X159156D01*
X158944Y250012D01*
X158441Y250515D01*
X157929Y250728D01*
D02*
G37*
G36*
X156929D02*
X156416Y250515D01*
X155913Y250012D01*
X155701Y249500D01*
X156929D01*
Y250728D01*
D02*
G37*
G36*
X153643D02*
Y249500D01*
X154870D01*
X154658Y250012D01*
X154155Y250515D01*
X153643Y250728D01*
D02*
G37*
G36*
X152643D02*
X152130Y250515D01*
X151628Y250012D01*
X151415Y249500D01*
X152643D01*
Y250728D01*
D02*
G37*
G36*
X149357D02*
Y249500D01*
X150585D01*
X150372Y250012D01*
X149870Y250515D01*
X149357Y250728D01*
D02*
G37*
G36*
X148357D02*
X147845Y250515D01*
X147342Y250012D01*
X147130Y249500D01*
X148357D01*
Y250728D01*
D02*
G37*
G36*
X145071D02*
Y249500D01*
X146299D01*
X146087Y250012D01*
X145584Y250515D01*
X145071Y250728D01*
D02*
G37*
G36*
X144071D02*
X143559Y250515D01*
X143056Y250012D01*
X142844Y249500D01*
X144071D01*
Y250728D01*
D02*
G37*
G36*
X140786D02*
Y249500D01*
X142013D01*
X141801Y250012D01*
X141298Y250515D01*
X140786Y250728D01*
D02*
G37*
G36*
X139786D02*
X139273Y250515D01*
X138770Y250012D01*
X138558Y249500D01*
X139786D01*
Y250728D01*
D02*
G37*
G36*
X136500D02*
Y249500D01*
X137728D01*
X137515Y250012D01*
X137013Y250515D01*
X136500Y250728D01*
D02*
G37*
G36*
X135500D02*
X134987Y250515D01*
X134485Y250012D01*
X134272Y249500D01*
X135500D01*
Y250728D01*
D02*
G37*
G36*
X167727Y248500D02*
X166500D01*
Y247272D01*
X167012Y247485D01*
X167515Y247988D01*
X167727Y248500D01*
D02*
G37*
G36*
X165500D02*
X164272D01*
X164485Y247988D01*
X164988Y247485D01*
X165500Y247272D01*
Y248500D01*
D02*
G37*
G36*
X163442D02*
X162214D01*
Y247272D01*
X162727Y247485D01*
X163230Y247988D01*
X163442Y248500D01*
D02*
G37*
G36*
X161214D02*
X159987D01*
X160199Y247988D01*
X160702Y247485D01*
X161214Y247272D01*
Y248500D01*
D02*
G37*
G36*
X159156D02*
X157929D01*
Y247272D01*
X158441Y247485D01*
X158944Y247988D01*
X159156Y248500D01*
D02*
G37*
G36*
X156929D02*
X155701D01*
X155913Y247988D01*
X156416Y247485D01*
X156929Y247272D01*
Y248500D01*
D02*
G37*
G36*
X154870D02*
X153643D01*
Y247272D01*
X154155Y247485D01*
X154658Y247988D01*
X154870Y248500D01*
D02*
G37*
G36*
X152643D02*
X151415D01*
X151628Y247988D01*
X152130Y247485D01*
X152643Y247272D01*
Y248500D01*
D02*
G37*
G36*
X150585D02*
X149357D01*
Y247272D01*
X149870Y247485D01*
X150372Y247988D01*
X150585Y248500D01*
D02*
G37*
G36*
X148357D02*
X147130D01*
X147342Y247988D01*
X147845Y247485D01*
X148357Y247272D01*
Y248500D01*
D02*
G37*
G36*
X146299D02*
X145071D01*
Y247272D01*
X145584Y247485D01*
X146087Y247988D01*
X146299Y248500D01*
D02*
G37*
G36*
X144071D02*
X142844D01*
X143056Y247988D01*
X143559Y247485D01*
X144071Y247272D01*
Y248500D01*
D02*
G37*
G36*
X142013D02*
X140786D01*
Y247272D01*
X141298Y247485D01*
X141801Y247988D01*
X142013Y248500D01*
D02*
G37*
G36*
X139786D02*
X138558D01*
X138770Y247988D01*
X139273Y247485D01*
X139786Y247272D01*
Y248500D01*
D02*
G37*
G36*
X137728D02*
X136500D01*
Y247272D01*
X137013Y247485D01*
X137515Y247988D01*
X137728Y248500D01*
D02*
G37*
G36*
X135500D02*
X134272D01*
X134485Y247988D01*
X134987Y247485D01*
X135500Y247272D01*
Y248500D01*
D02*
G37*
G36*
X149357Y244728D02*
Y243500D01*
X150585D01*
X150372Y244012D01*
X149870Y244515D01*
X149357Y244728D01*
D02*
G37*
G36*
X148357D02*
X147845Y244515D01*
X147342Y244012D01*
X147130Y243500D01*
X148357D01*
Y244728D01*
D02*
G37*
G36*
X145071D02*
Y243500D01*
X146299D01*
X146087Y244012D01*
X145584Y244515D01*
X145071Y244728D01*
D02*
G37*
G36*
X144071D02*
X143559Y244515D01*
X143056Y244012D01*
X142844Y243500D01*
X144071D01*
Y244728D01*
D02*
G37*
G36*
X140786D02*
Y243500D01*
X142013D01*
X141801Y244012D01*
X141298Y244515D01*
X140786Y244728D01*
D02*
G37*
G36*
X139786D02*
X139273Y244515D01*
X138770Y244012D01*
X138558Y243500D01*
X139786D01*
Y244728D01*
D02*
G37*
G36*
X136500D02*
Y243500D01*
X137728D01*
X137515Y244012D01*
X137013Y244515D01*
X136500Y244728D01*
D02*
G37*
G36*
X135500D02*
X134987Y244515D01*
X134485Y244012D01*
X134272Y243500D01*
X135500D01*
Y244728D01*
D02*
G37*
G36*
X150585Y242500D02*
X149357D01*
Y241272D01*
X149870Y241485D01*
X150372Y241987D01*
X150585Y242500D01*
D02*
G37*
G36*
X148357D02*
X147130D01*
X147342Y241987D01*
X147845Y241485D01*
X148357Y241272D01*
Y242500D01*
D02*
G37*
G36*
X146299D02*
X145071D01*
Y241272D01*
X145584Y241485D01*
X146087Y241987D01*
X146299Y242500D01*
D02*
G37*
G36*
X144071D02*
X142844D01*
X143056Y241987D01*
X143559Y241485D01*
X144071Y241272D01*
Y242500D01*
D02*
G37*
G36*
X142013D02*
X140786D01*
Y241272D01*
X141298Y241485D01*
X141801Y241987D01*
X142013Y242500D01*
D02*
G37*
G36*
X139786D02*
X138558D01*
X138770Y241987D01*
X139273Y241485D01*
X139786Y241272D01*
Y242500D01*
D02*
G37*
G36*
X137728D02*
X136500D01*
Y241272D01*
X137013Y241485D01*
X137515Y241987D01*
X137728Y242500D01*
D02*
G37*
G36*
X135500D02*
X134272D01*
X134485Y241987D01*
X134987Y241485D01*
X135500Y241272D01*
Y242500D01*
D02*
G37*
G36*
X142296Y223487D02*
X141704D01*
X141157Y223261D01*
X140739Y222843D01*
X140513Y222296D01*
Y221704D01*
X140739Y221158D01*
X141157Y220739D01*
X141704Y220513D01*
X142296D01*
X142842Y220739D01*
X143261Y221158D01*
X143487Y221704D01*
Y222296D01*
X143261Y222843D01*
X142842Y223261D01*
X142296Y223487D01*
D02*
G37*
G36*
X138010D02*
X137418D01*
X136872Y223261D01*
X136453Y222843D01*
X136227Y222296D01*
Y221704D01*
X136453Y221158D01*
X136872Y220739D01*
X137418Y220513D01*
X138010D01*
X138557Y220739D01*
X138975Y221158D01*
X139202Y221704D01*
Y222296D01*
X138975Y222843D01*
X138557Y223261D01*
X138010Y223487D01*
D02*
G37*
G36*
X133724D02*
X133133D01*
X132586Y223261D01*
X132168Y222843D01*
X131941Y222296D01*
Y221704D01*
X132168Y221158D01*
X132586Y220739D01*
X133133Y220513D01*
X133724D01*
X134271Y220739D01*
X134689Y221158D01*
X134916Y221704D01*
Y222296D01*
X134689Y222843D01*
X134271Y223261D01*
X133724Y223487D01*
D02*
G37*
G36*
X79500Y204223D02*
Y202996D01*
X80728D01*
X80515Y203508D01*
X80013Y204011D01*
X79500Y204223D01*
D02*
G37*
G36*
X78500D02*
X77987Y204011D01*
X77485Y203508D01*
X77272Y202996D01*
X78500D01*
Y204223D01*
D02*
G37*
G36*
X80728Y201996D02*
X79500D01*
Y200768D01*
X80013Y200980D01*
X80515Y201483D01*
X80728Y201996D01*
D02*
G37*
G36*
X78500D02*
X77272D01*
X77485Y201483D01*
X77987Y200980D01*
X78500Y200768D01*
Y201996D01*
D02*
G37*
G36*
X169600Y199328D02*
X169088Y199115D01*
X168671Y198699D01*
X168375Y198648D01*
X168079Y198699D01*
X167663Y199115D01*
X167150Y199328D01*
Y197600D01*
X166150D01*
Y199328D01*
X165638Y199115D01*
X165221Y198699D01*
X164925Y198648D01*
X164629Y198699D01*
X164213Y199115D01*
X163700Y199328D01*
Y197600D01*
X163200D01*
Y197100D01*
X161472D01*
X161685Y196588D01*
X161896Y196377D01*
X162075Y195945D01*
X161896Y195723D01*
X161585Y195413D01*
X161372Y194900D01*
X163100D01*
Y193900D01*
X161372D01*
X161585Y193387D01*
X161796Y193177D01*
X161975Y192745D01*
X161796Y192523D01*
X161485Y192212D01*
X161272Y191700D01*
X164728D01*
X164515Y192212D01*
X164304Y192423D01*
X164125Y192855D01*
X164304Y193077D01*
X164615Y193387D01*
X164625Y193411D01*
X165125D01*
X165135Y193387D01*
X165638Y192885D01*
X166150Y192672D01*
Y194400D01*
X167150D01*
Y192672D01*
X167663Y192885D01*
X168079Y193301D01*
X168375Y193352D01*
X168671Y193301D01*
X169088Y192885D01*
X169600Y192672D01*
Y194400D01*
X170100D01*
Y194900D01*
X171828D01*
X171615Y195413D01*
X171354Y195673D01*
X171162Y196000D01*
X171354Y196327D01*
X171615Y196588D01*
X171828Y197100D01*
X170100D01*
Y197600D01*
X169600D01*
Y199328D01*
D02*
G37*
G36*
X170600D02*
Y198100D01*
X171828D01*
X171615Y198612D01*
X171113Y199115D01*
X170600Y199328D01*
D02*
G37*
G36*
X162700D02*
X162188Y199115D01*
X161685Y198612D01*
X161472Y198100D01*
X162700D01*
Y199328D01*
D02*
G37*
G36*
X171828Y193900D02*
X170600D01*
Y192672D01*
X171113Y192885D01*
X171615Y193387D01*
X171828Y193900D01*
D02*
G37*
G36*
X85500Y191728D02*
Y190500D01*
X86728D01*
X86515Y191013D01*
X86013Y191515D01*
X85500Y191728D01*
D02*
G37*
G36*
X84500D02*
X83987Y191515D01*
X83485Y191013D01*
X83272Y190500D01*
X84500D01*
Y191728D01*
D02*
G37*
G36*
X164728Y190700D02*
X163500D01*
Y189472D01*
X164013Y189685D01*
X164515Y190188D01*
X164728Y190700D01*
D02*
G37*
G36*
X162500D02*
X161272D01*
X161485Y190188D01*
X161987Y189685D01*
X162500Y189472D01*
Y190700D01*
D02*
G37*
G36*
X86728Y189500D02*
X85500D01*
Y188272D01*
X86013Y188485D01*
X86515Y188988D01*
X86728Y189500D01*
D02*
G37*
G36*
X84500D02*
X83272D01*
X83485Y188988D01*
X83987Y188485D01*
X84500Y188272D01*
Y189500D01*
D02*
G37*
G36*
X79000Y175128D02*
Y173900D01*
X80228D01*
X80015Y174413D01*
X79513Y174915D01*
X79000Y175128D01*
D02*
G37*
G36*
X78000D02*
X77487Y174915D01*
X76985Y174413D01*
X76772Y173900D01*
X78000D01*
Y175128D01*
D02*
G37*
G36*
X80228Y172900D02*
X79000D01*
Y171672D01*
X79513Y171885D01*
X80015Y172388D01*
X80228Y172900D01*
D02*
G37*
G36*
X78000D02*
X76772D01*
X76985Y172388D01*
X77487Y171885D01*
X78000Y171672D01*
Y172900D01*
D02*
G37*
%LPD*%
D16*
X114102Y209000D02*
X134578D01*
X180578Y255000D01*
X201000D01*
X204500Y230200D02*
Y334500D01*
Y177500D02*
Y230200D01*
X71421Y229900D02*
X74500D01*
X64300Y222779D02*
X71421Y229900D01*
X60000Y245000D02*
Y267500D01*
X52600Y214600D02*
X72315Y234315D01*
X74390D02*
X74500Y234425D01*
X72315Y234315D02*
X74390D01*
X70000Y122500D02*
Y192500D01*
X100000Y247000D02*
Y263000D01*
X91420Y227700D02*
X93714D01*
X95390Y227810D02*
X95500Y227700D01*
X95000Y230000D02*
X99714D01*
X93714Y227810D02*
X95390D01*
X74400Y238400D02*
Y276700D01*
X52600Y182586D02*
Y214600D01*
X99714Y230000D02*
X100500Y229214D01*
X104983Y211965D02*
X105035D01*
X105997Y214003D02*
X112987Y207013D01*
X105035Y211965D02*
X113000Y204000D01*
X112987Y207013D02*
X183013D01*
X113000Y204000D02*
X184000D01*
X114051Y209051D02*
X114102Y209000D01*
X191000Y215000D02*
X192000D01*
X183013Y207013D02*
X191000Y215000D01*
X184000Y204000D02*
X192000Y212000D01*
X204500Y177500D02*
X207000Y175000D01*
X100500Y68086D02*
Y229214D01*
X99914Y67500D02*
X100500Y68086D01*
X80700Y283000D02*
X114000D01*
X74400Y276700D02*
X80700Y283000D01*
X100000Y263000D02*
X117000Y280000D01*
X175200Y363800D02*
X204500Y334500D01*
X141842Y23000D02*
Y171757D01*
X118800Y194800D02*
X141842Y171757D01*
X95430Y67700D02*
X95630Y67500D01*
X89600Y56200D02*
Y67114D01*
X90186Y67700D02*
X95430D01*
X89600Y67114D02*
X90186Y67700D01*
X90834Y73086D02*
X91420Y72500D01*
X95630D01*
X90834Y73086D02*
Y227114D01*
X91420Y227700D01*
X95630Y67500D02*
X99914D01*
X74600Y116400D02*
Y224400D01*
Y116400D02*
X78300Y112700D01*
X64300Y194700D02*
Y222779D01*
X53186Y182000D02*
X61900D01*
X57200Y187600D02*
X64300Y194700D01*
X52600Y182586D02*
X53186Y182000D01*
X104900Y363800D02*
X175200D01*
D20*
X107000Y72157D02*
D03*
Y65843D02*
D03*
D31*
X94718Y56200D02*
D03*
X89600D02*
D03*
D71*
X535032Y61000D02*
D03*
X414035Y61020D02*
D03*
X453024Y333980D02*
D03*
X330996D02*
D03*
D72*
X465031Y51000D02*
D03*
X344035Y51020D02*
D03*
X523024Y343980D02*
D03*
X400996D02*
D03*
D73*
X480031Y111000D02*
D03*
X359035Y111020D02*
D03*
X508024Y283980D02*
D03*
X385996D02*
D03*
D74*
X520031Y111000D02*
D03*
X399035Y111020D02*
D03*
X468024Y283980D02*
D03*
X345996D02*
D03*
D90*
X388570Y120000D02*
X471032D01*
X480031Y111000D01*
X379590Y111020D02*
X388570Y120000D01*
X359035Y111020D02*
X379590D01*
X482500Y275000D02*
X491480Y283980D01*
X508024D01*
X422500Y275000D02*
X482500D01*
X385996Y283980D02*
X413520D01*
X422500Y275000D01*
X169000Y78000D02*
X188000Y97000D01*
X95630Y77500D02*
Y83170D01*
X95600Y83200D02*
X95630Y83170D01*
X113457Y72157D02*
X113500Y72200D01*
X107000Y72157D02*
X113457D01*
X74370Y84470D02*
X74500Y84600D01*
X74370Y77500D02*
Y84470D01*
Y62500D02*
X75031D01*
X75100Y62431D01*
Y58700D02*
Y62431D01*
X40866Y61654D02*
X63153D01*
X20866D02*
X40866D01*
X63153D02*
X69100Y67600D01*
X71202Y67569D02*
X74301D01*
X71171Y67600D02*
X71202Y67569D01*
X69100Y67600D02*
X71171D01*
X74301Y67569D02*
X74370Y67500D01*
X74301Y72431D02*
X74370Y72500D01*
X71302Y72431D02*
X74301D01*
X71271Y72400D02*
X71302Y72431D01*
X69200Y72400D02*
X71271D01*
X59947Y81653D02*
X69200Y72400D01*
X40866Y81653D02*
X59947D01*
X20866D02*
X40866D01*
X181418Y296618D02*
X181918D01*
X197100Y311800D01*
D91*
X302031Y51689D02*
Y87032D01*
X368465Y153465D01*
X277500Y262500D02*
X287500Y252500D01*
X615000Y210000D02*
Y246642D01*
X287500Y252500D02*
X609142D01*
X615000Y246642D01*
X277500Y262500D02*
Y342500D01*
X276689Y343311D02*
X292032D01*
X262504D02*
X276689D01*
X277500Y342500D01*
X568571Y202500D02*
X589653D01*
X607500D01*
X568000Y203071D02*
X568571Y202500D01*
X607500D02*
X615000Y210000D01*
X247500Y262500D02*
X290394Y219606D01*
X568000D01*
X247500Y262500D02*
Y367677D01*
X262504Y382681D01*
X568000Y219606D02*
X589653D01*
X262504Y382681D02*
X292032D01*
X257500Y27323D02*
X272504Y12319D01*
X257500Y81754D02*
X345746Y170000D01*
X257500Y27323D02*
Y81754D01*
X568000Y170000D02*
X589653D01*
X345746D02*
X568000D01*
X272504Y12319D02*
X302031D01*
X568000Y153465D02*
X589653D01*
X368465D02*
X568000D01*
X156300Y270052D02*
Y337800D01*
D92*
X49700Y103300D02*
Y271600D01*
X75750Y297650D01*
X49700Y103300D02*
X62100Y90900D01*
X39172Y371200D02*
X70900D01*
X71636Y371936D01*
X38000Y370028D02*
X39172Y371200D01*
X75750Y297650D02*
X86300Y287100D01*
X57493Y320707D02*
X87200Y291000D01*
X118500D01*
X57493Y320707D02*
Y357793D01*
X86300Y287100D02*
X117073D01*
X122673Y281500D01*
X123000D01*
X92000Y295200D02*
X120800D01*
X127592Y286908D02*
X128000Y286500D01*
X120800Y295200D02*
X127592Y288408D01*
Y286908D02*
Y288408D01*
X38000Y354000D02*
Y370028D01*
Y354000D02*
X53600Y338400D01*
Y319800D02*
Y338400D01*
X62100Y90900D02*
X78600D01*
X83000Y56700D02*
Y86500D01*
Y56700D02*
X87700Y52000D01*
X78600Y90900D02*
X83000Y86500D01*
X87700Y52000D02*
X93546D01*
X94718Y53172D02*
Y56200D01*
X93546Y52000D02*
X94718Y53172D01*
Y56200D02*
Y62319D01*
X94899Y62500D01*
X95630D01*
X107000Y65457D02*
Y65843D01*
X104043Y62500D02*
X107000Y65457D01*
X95630Y62500D02*
X104043D01*
X53600Y319800D02*
X75750Y297650D01*
X118500Y291000D02*
X123000Y286500D01*
X64565Y322636D02*
X92000Y295200D01*
X64565Y322636D02*
Y364864D01*
D93*
X292032Y284256D02*
D03*
Y343311D02*
D03*
Y362996D02*
D03*
Y382681D02*
D03*
X262504D02*
D03*
Y362996D02*
D03*
Y343311D02*
D03*
X272504Y110744D02*
D03*
Y51689D02*
D03*
Y32004D02*
D03*
Y12319D02*
D03*
X302031D02*
D03*
Y32004D02*
D03*
Y51689D02*
D03*
D94*
X262504Y284256D02*
D03*
X302031Y110744D02*
D03*
D95*
X105200Y303600D02*
D03*
Y343600D02*
D03*
Y383600D02*
D03*
X145200Y303600D02*
D03*
Y383600D02*
D03*
D96*
X165200Y303600D02*
D03*
D97*
X20866Y41653D02*
D03*
Y61654D02*
D03*
Y81653D02*
D03*
Y101654D02*
D03*
Y121653D02*
D03*
Y141654D02*
D03*
Y161653D02*
D03*
Y181653D02*
D03*
Y201654D02*
D03*
Y221654D02*
D03*
Y241653D02*
D03*
Y261653D02*
D03*
Y281653D02*
D03*
Y301654D02*
D03*
Y321654D02*
D03*
Y341653D02*
D03*
X40866Y41653D02*
D03*
Y61654D02*
D03*
Y81653D02*
D03*
Y101654D02*
D03*
Y121653D02*
D03*
Y141654D02*
D03*
Y161653D02*
D03*
Y181653D02*
D03*
Y201654D02*
D03*
Y221654D02*
D03*
Y241653D02*
D03*
Y261653D02*
D03*
Y281653D02*
D03*
Y301654D02*
D03*
Y321654D02*
D03*
Y341653D02*
D03*
X59400Y101058D02*
D03*
Y133342D02*
D03*
D98*
X10866Y371654D02*
D03*
Y21654D02*
D03*
D99*
X589653Y43465D02*
D03*
Y263142D02*
D03*
Y153465D02*
D03*
D100*
X568000Y43465D02*
D03*
X589653Y60000D02*
D03*
X568000D02*
D03*
X589653Y76535D02*
D03*
X568000D02*
D03*
X589653Y93071D02*
D03*
X568000D02*
D03*
X589653Y109606D02*
D03*
X568000D02*
D03*
X589653Y126142D02*
D03*
X568000D02*
D03*
Y263142D02*
D03*
X589653Y279677D02*
D03*
X568000D02*
D03*
X589653Y296213D02*
D03*
X568000D02*
D03*
X589653Y312748D02*
D03*
X568000D02*
D03*
X589653Y329283D02*
D03*
X568000D02*
D03*
X589653Y345819D02*
D03*
X568000D02*
D03*
Y236142D02*
D03*
X589653D02*
D03*
X568000Y219606D02*
D03*
X589653D02*
D03*
X568000Y203071D02*
D03*
X589653D02*
D03*
X568000Y186535D02*
D03*
X589653D02*
D03*
X568000Y170000D02*
D03*
X589653D02*
D03*
X568000Y153465D02*
D03*
D101*
X50422Y350722D02*
D03*
X57493Y357793D02*
D03*
X71636Y371936D02*
D03*
X78707Y379007D02*
D03*
X64565Y364864D02*
D03*
X141842Y23000D02*
D03*
D102*
X85778Y386078D02*
D03*
D103*
X123000Y281500D02*
D03*
Y286500D02*
D03*
X128000Y281500D02*
D03*
X133000D02*
D03*
X128000Y286500D02*
D03*
X133000D02*
D03*
X138000Y281500D02*
D03*
X143000D02*
D03*
X138000Y286500D02*
D03*
X143000D02*
D03*
D104*
X59400Y109326D02*
D03*
D105*
Y117200D02*
D03*
Y125074D02*
D03*
D106*
X615866Y371850D02*
D03*
Y21850D02*
D03*
D107*
X122158Y23000D02*
D03*
D108*
X148857Y253728D02*
D03*
Y249000D02*
D03*
X60600Y211700D02*
D03*
X70300Y256600D02*
D03*
X174000Y330000D02*
D03*
Y324500D02*
D03*
Y320500D02*
D03*
Y316000D02*
D03*
Y311500D02*
D03*
X258400Y231200D02*
D03*
X497500Y240000D02*
D03*
X74500Y229900D02*
D03*
X60000Y245000D02*
D03*
X79000Y202496D02*
D03*
X70000Y192500D02*
D03*
X65600Y187700D02*
D03*
X70000Y122500D02*
D03*
X85000Y190000D02*
D03*
X60000Y300000D02*
D03*
X51800Y309400D02*
D03*
X100000Y247000D02*
D03*
X84700Y252400D02*
D03*
X88300Y259300D02*
D03*
X95000Y230000D02*
D03*
X74500Y234425D02*
D03*
X74400Y238400D02*
D03*
X60000Y267500D02*
D03*
X75750Y297650D02*
D03*
X128070Y307500D02*
D03*
X120196D02*
D03*
X520000Y230000D02*
D03*
X372500Y240000D02*
D03*
X400000Y230000D02*
D03*
X274163Y226663D02*
D03*
X390000Y160000D02*
D03*
X402500Y142500D02*
D03*
X535000Y145000D02*
D03*
X269800Y160000D02*
D03*
X295000Y150000D02*
D03*
X515000Y160000D02*
D03*
X257122Y180122D02*
D03*
X234878Y181122D02*
D03*
X105997Y214003D02*
D03*
X104983Y211965D02*
D03*
X114051Y209051D02*
D03*
X192000Y215000D02*
D03*
Y212000D02*
D03*
X137714Y222000D02*
D03*
X162286D02*
D03*
X153714D02*
D03*
X158000D02*
D03*
X142000D02*
D03*
X133429D02*
D03*
X162286Y216000D02*
D03*
X158000D02*
D03*
X149429D02*
D03*
X153714D02*
D03*
X157429Y253728D02*
D03*
X153143D02*
D03*
X166000D02*
D03*
X161714D02*
D03*
X136000D02*
D03*
X140286D02*
D03*
X144571D02*
D03*
X140286Y249000D02*
D03*
X144571D02*
D03*
X136000D02*
D03*
X157429D02*
D03*
X153143D02*
D03*
X161714D02*
D03*
X166000D02*
D03*
X140286Y243000D02*
D03*
X136000D02*
D03*
X148857D02*
D03*
X144571D02*
D03*
X114000Y283000D02*
D03*
X117000Y280000D02*
D03*
X201000Y255000D02*
D03*
X188000Y97000D02*
D03*
X169000Y78000D02*
D03*
X207000Y175000D02*
D03*
X216000Y148000D02*
D03*
X96300Y23000D02*
D03*
X118800Y194800D02*
D03*
X95600Y83200D02*
D03*
X113500Y72200D02*
D03*
X95500Y227700D02*
D03*
X57200Y187600D02*
D03*
X74500Y84600D02*
D03*
X79800Y124300D02*
D03*
X74500Y97300D02*
D03*
X57100Y153600D02*
D03*
X75100Y58700D02*
D03*
X65900Y153700D02*
D03*
X96574Y307500D02*
D03*
X88700D02*
D03*
X92637Y315374D02*
D03*
X100511D02*
D03*
X112322Y307500D02*
D03*
X116259Y315374D02*
D03*
X108385D02*
D03*
X124133D02*
D03*
X132007D02*
D03*
X121300Y324000D02*
D03*
X104900Y363800D02*
D03*
X126426Y377000D02*
D03*
X204500Y230200D02*
D03*
X197000Y235900D02*
D03*
X139881Y315374D02*
D03*
X181418Y296618D02*
D03*
X197100Y311800D02*
D03*
X91000Y252100D02*
D03*
X61900Y182000D02*
D03*
X74600Y224400D02*
D03*
X78500Y173400D02*
D03*
X78300Y112700D02*
D03*
X130000Y123500D02*
D03*
X169800Y160600D02*
D03*
X173250D02*
D03*
X176700D02*
D03*
X173250Y157400D02*
D03*
X169700D02*
D03*
X176700D02*
D03*
X163000Y191200D02*
D03*
X170100Y194400D02*
D03*
X163100D02*
D03*
X166650D02*
D03*
X170100Y197600D02*
D03*
X166650D02*
D03*
X163200D02*
D03*
X158300Y328242D02*
D03*
X154800Y328549D02*
D03*
X158300Y331428D02*
D03*
X154800Y331599D02*
D03*
Y322448D02*
D03*
Y325499D02*
D03*
Y334650D02*
D03*
X158300Y337800D02*
D03*
Y334614D02*
D03*
X154800Y337700D02*
D03*
X147755Y315374D02*
D03*
X135944Y307500D02*
D03*
X153985Y384874D02*
D03*
X150048Y377000D02*
D03*
X142174D02*
D03*
X138237Y384874D02*
D03*
X134300Y377000D02*
D03*
X130363Y384874D02*
D03*
X122489D02*
D03*
X118552Y377000D02*
D03*
X52200Y256500D02*
D03*
D130*
X74370Y62500D02*
D03*
Y67500D02*
D03*
Y72500D02*
D03*
Y77500D02*
D03*
X95630D02*
D03*
Y72500D02*
D03*
Y67500D02*
D03*
Y62500D02*
D03*
M02*
