G04*
G04 #@! TF.GenerationSoftware,Altium Limited,Altium Designer,21.6.4 (81)*
G04*
G04 Layer_Physical_Order=2*
G04 Layer_Color=32768*
%FSLAX25Y25*%
%MOIN*%
G70*
G04*
G04 #@! TF.SameCoordinates,D5C6F8BD-756C-4CA3-9184-76241C2A0D58*
G04*
G04*
G04 #@! TF.FilePolarity,Negative*
G04*
G01*
G75*
%ADD109C,0.04000*%
%ADD110C,0.09512*%
%ADD111C,0.11795*%
%ADD112C,0.12110*%
%ADD113C,0.08291*%
%ADD114C,0.07000*%
G04:AMPARAMS|DCode=115|XSize=90mil|YSize=90mil|CornerRadius=0mil|HoleSize=0mil|Usage=FLASHONLY|Rotation=0.000|XOffset=0mil|YOffset=0mil|HoleType=Round|Shape=Relief|Width=10mil|Gap=10mil|Entries=4|*
%AMTHD115*
7,0,0,0.09000,0.07000,0.01000,45*
%
%ADD115THD115*%
%ADD116C,0.07937*%
G04:AMPARAMS|DCode=117|XSize=99.37mil|YSize=99.37mil|CornerRadius=0mil|HoleSize=0mil|Usage=FLASHONLY|Rotation=0.000|XOffset=0mil|YOffset=0mil|HoleType=Round|Shape=Relief|Width=10mil|Gap=10mil|Entries=4|*
%AMTHD117*
7,0,0,0.09937,0.07937,0.01000,45*
%
%ADD117THD117*%
%ADD118C,0.15024*%
%ADD119C,0.08331*%
%ADD120C,0.06756*%
G04:AMPARAMS|DCode=121|XSize=87.559mil|YSize=87.559mil|CornerRadius=0mil|HoleSize=0mil|Usage=FLASHONLY|Rotation=0.000|XOffset=0mil|YOffset=0mil|HoleType=Round|Shape=Relief|Width=10mil|Gap=10mil|Entries=4|*
%AMTHD121*
7,0,0,0.08756,0.06756,0.01000,45*
%
%ADD121THD121*%
%ADD122C,0.07150*%
%ADD123C,0.09906*%
%ADD124C,0.15024*%
G04:AMPARAMS|DCode=125|XSize=103.307mil|YSize=103.307mil|CornerRadius=0mil|HoleSize=0mil|Usage=FLASHONLY|Rotation=0.000|XOffset=0mil|YOffset=0mil|HoleType=Round|Shape=Relief|Width=10mil|Gap=10mil|Entries=4|*
%AMTHD125*
7,0,0,0.10331,0.08331,0.01000,45*
%
%ADD125THD125*%
%ADD126C,0.04787*%
G04:AMPARAMS|DCode=127|XSize=67.874mil|YSize=67.874mil|CornerRadius=0mil|HoleSize=0mil|Usage=FLASHONLY|Rotation=0.000|XOffset=0mil|YOffset=0mil|HoleType=Round|Shape=Relief|Width=10mil|Gap=10mil|Entries=4|*
%AMTHD127*
7,0,0,0.06787,0.04787,0.01000,45*
%
%ADD127THD127*%
D109*
X0Y4000D02*
X136Y2965D01*
X536Y2000D01*
X1172Y1172D01*
X2000Y536D01*
X2965Y136D01*
X4000Y0D01*
X5701Y393701D02*
X4711Y393614D01*
X3751Y393357D01*
X2850Y392937D01*
X2036Y392367D01*
X1334Y391664D01*
X764Y390850D01*
X344Y389950D01*
X87Y388990D01*
X0Y388000D01*
X629921Y391079D02*
X629722Y392082D01*
X629153Y392933D01*
X628302Y393501D01*
X627299Y393701D01*
X622000Y0D02*
X623034Y68D01*
X624050Y270D01*
X625031Y603D01*
X625961Y1061D01*
X626822Y1637D01*
X627601Y2320D01*
X628284Y3099D01*
X628860Y3961D01*
X629318Y4890D01*
X629651Y5871D01*
X629853Y6887D01*
X629921Y7921D01*
X0Y4000D02*
Y388000D01*
X5701Y393701D02*
X627299D01*
X629921Y7921D02*
Y391079D01*
X4000Y0D02*
X622000Y0D01*
D110*
X292032Y284256D02*
D03*
Y343311D02*
D03*
Y362996D02*
D03*
Y382681D02*
D03*
X262504D02*
D03*
Y362996D02*
D03*
Y343311D02*
D03*
Y284256D02*
D03*
X272504Y110744D02*
D03*
Y51689D02*
D03*
Y32004D02*
D03*
Y12319D02*
D03*
X302031D02*
D03*
Y32004D02*
D03*
Y51689D02*
D03*
Y110744D02*
D03*
X589653Y43465D02*
D03*
X568000D02*
D03*
X589653Y60000D02*
D03*
X568000D02*
D03*
X589653Y76535D02*
D03*
X568000D02*
D03*
X589653Y93071D02*
D03*
X568000D02*
D03*
X589653Y109606D02*
D03*
X568000D02*
D03*
X589653Y126142D02*
D03*
X568000D02*
D03*
X589653Y263142D02*
D03*
X568000D02*
D03*
X589653Y279677D02*
D03*
X568000D02*
D03*
X589653Y296213D02*
D03*
X568000D02*
D03*
X589653Y312748D02*
D03*
X568000D02*
D03*
X589653Y329283D02*
D03*
X568000D02*
D03*
X589653Y345819D02*
D03*
X568000D02*
D03*
Y236142D02*
D03*
X589653D02*
D03*
X568000Y219606D02*
D03*
X589653D02*
D03*
X568000Y203071D02*
D03*
X589653D02*
D03*
X568000Y186535D02*
D03*
X589653D02*
D03*
X568000Y170000D02*
D03*
X589653D02*
D03*
X568000Y153465D02*
D03*
X589653D02*
D03*
D111*
X535032Y61000D02*
D03*
X414035Y61020D02*
D03*
X453024Y333980D02*
D03*
X330996D02*
D03*
D112*
X465031Y51000D02*
D03*
X344035Y51020D02*
D03*
X523024Y343980D02*
D03*
X400996D02*
D03*
D113*
X480031Y111000D02*
D03*
X520031D02*
D03*
X359035Y111020D02*
D03*
X399035D02*
D03*
X468024Y283980D02*
D03*
X508024D02*
D03*
X345996D02*
D03*
X385996D02*
D03*
D114*
X105200Y303600D02*
D03*
Y343600D02*
D03*
Y383600D02*
D03*
X165200Y303600D02*
D03*
D115*
X145200D02*
D03*
Y383600D02*
D03*
D116*
X20866Y41653D02*
D03*
Y61654D02*
D03*
Y81653D02*
D03*
Y101654D02*
D03*
Y121653D02*
D03*
Y141654D02*
D03*
Y161653D02*
D03*
Y181653D02*
D03*
Y201654D02*
D03*
Y221654D02*
D03*
Y241653D02*
D03*
Y261653D02*
D03*
Y281653D02*
D03*
Y301654D02*
D03*
Y321654D02*
D03*
X40866Y41653D02*
D03*
Y61654D02*
D03*
Y81653D02*
D03*
Y101654D02*
D03*
Y121653D02*
D03*
Y141654D02*
D03*
Y161653D02*
D03*
Y181653D02*
D03*
Y201654D02*
D03*
Y221654D02*
D03*
Y241653D02*
D03*
Y261653D02*
D03*
Y281653D02*
D03*
Y301654D02*
D03*
Y321654D02*
D03*
D117*
X20866Y341653D02*
D03*
X40866D02*
D03*
D118*
X10866Y371654D02*
D03*
Y21654D02*
D03*
X615866Y21850D02*
D03*
D119*
X50422Y350722D02*
D03*
X57493Y357793D02*
D03*
X71636Y371936D02*
D03*
X85778Y386078D02*
D03*
X78707Y379007D02*
D03*
X64565Y364864D02*
D03*
X141842Y23000D02*
D03*
D120*
X123000Y281500D02*
D03*
Y286500D02*
D03*
X128000D02*
D03*
X133000D02*
D03*
X138000Y281500D02*
D03*
Y286500D02*
D03*
X143000D02*
D03*
D121*
X128000Y281500D02*
D03*
X133000D02*
D03*
X143000D02*
D03*
D122*
X59400Y109326D02*
D03*
Y117200D02*
D03*
Y125074D02*
D03*
D123*
Y101058D02*
D03*
Y133342D02*
D03*
D124*
X615866Y371850D02*
D03*
D125*
X122158Y23000D02*
D03*
D126*
X148857Y253728D02*
D03*
Y249000D02*
D03*
X258400Y231200D02*
D03*
X497500Y240000D02*
D03*
X74500Y229900D02*
D03*
X60000Y245000D02*
D03*
X79000Y202496D02*
D03*
X70000Y192500D02*
D03*
Y122500D02*
D03*
X85000Y190000D02*
D03*
X60000Y300000D02*
D03*
X100000Y247000D02*
D03*
X84700Y252400D02*
D03*
X95000Y230000D02*
D03*
X74500Y234425D02*
D03*
X74400Y238400D02*
D03*
X60000Y267500D02*
D03*
X75750Y297650D02*
D03*
X128070Y307500D02*
D03*
X120196D02*
D03*
X520000Y230000D02*
D03*
X372500Y240000D02*
D03*
X400000Y230000D02*
D03*
X274163Y226663D02*
D03*
X390000Y160000D02*
D03*
X402500Y142500D02*
D03*
X535000Y145000D02*
D03*
X269800Y160000D02*
D03*
X295000Y150000D02*
D03*
X515000Y160000D02*
D03*
X257122Y180122D02*
D03*
X105997Y214003D02*
D03*
X104983Y211965D02*
D03*
X114051Y209051D02*
D03*
X192000Y215000D02*
D03*
Y212000D02*
D03*
X157429Y253728D02*
D03*
X153143D02*
D03*
X166000D02*
D03*
X161714D02*
D03*
X136000D02*
D03*
X140286D02*
D03*
X144571D02*
D03*
X140286Y249000D02*
D03*
X144571D02*
D03*
X136000D02*
D03*
X157429D02*
D03*
X153143D02*
D03*
X161714D02*
D03*
X166000D02*
D03*
X140286Y243000D02*
D03*
X136000D02*
D03*
X148857D02*
D03*
X144571D02*
D03*
X114000Y283000D02*
D03*
X117000Y280000D02*
D03*
X201000Y255000D02*
D03*
X188000Y97000D02*
D03*
X169000Y78000D02*
D03*
X207000Y175000D02*
D03*
X118800Y194800D02*
D03*
X95500Y227700D02*
D03*
X57200Y187600D02*
D03*
X74500Y84600D02*
D03*
X75100Y58700D02*
D03*
X96574Y307500D02*
D03*
X88700D02*
D03*
X92637Y315374D02*
D03*
X100511D02*
D03*
X112322Y307500D02*
D03*
X116259Y315374D02*
D03*
X108385D02*
D03*
X124133D02*
D03*
X132007D02*
D03*
X104900Y363800D02*
D03*
X204500Y230200D02*
D03*
X139881Y315374D02*
D03*
X181418Y296618D02*
D03*
X197100Y311800D02*
D03*
X61900Y182000D02*
D03*
X74600Y224400D02*
D03*
X78500Y173400D02*
D03*
X78300Y112700D02*
D03*
X163000Y191200D02*
D03*
X170100Y194400D02*
D03*
X163100D02*
D03*
X166650D02*
D03*
X170100Y197600D02*
D03*
X166650D02*
D03*
X163200D02*
D03*
X158300Y328242D02*
D03*
X154800Y328549D02*
D03*
X158300Y331428D02*
D03*
X154800Y331599D02*
D03*
Y322448D02*
D03*
Y325499D02*
D03*
Y334650D02*
D03*
X158300Y337800D02*
D03*
Y334614D02*
D03*
X154800Y337700D02*
D03*
X147755Y315374D02*
D03*
X135944Y307500D02*
D03*
D127*
X60600Y211700D02*
D03*
X70300Y256600D02*
D03*
X174000Y330000D02*
D03*
Y324500D02*
D03*
Y320500D02*
D03*
Y316000D02*
D03*
Y311500D02*
D03*
X65600Y187700D02*
D03*
X51800Y309400D02*
D03*
X88300Y259300D02*
D03*
X234878Y181122D02*
D03*
X137714Y222000D02*
D03*
X162286D02*
D03*
X153714D02*
D03*
X158000D02*
D03*
X142000D02*
D03*
X133429D02*
D03*
X162286Y216000D02*
D03*
X158000D02*
D03*
X149429D02*
D03*
X153714D02*
D03*
X216000Y148000D02*
D03*
X96300Y23000D02*
D03*
X95600Y83200D02*
D03*
X113500Y72200D02*
D03*
X79800Y124300D02*
D03*
X74500Y97300D02*
D03*
X57100Y153600D02*
D03*
X65900Y153700D02*
D03*
X121300Y324000D02*
D03*
X126426Y377000D02*
D03*
X197000Y235900D02*
D03*
X91000Y252100D02*
D03*
X130000Y123500D02*
D03*
X169800Y160600D02*
D03*
X173250D02*
D03*
X176700D02*
D03*
X173250Y157400D02*
D03*
X169700D02*
D03*
X176700D02*
D03*
X153985Y384874D02*
D03*
X150048Y377000D02*
D03*
X142174D02*
D03*
X138237Y384874D02*
D03*
X134300Y377000D02*
D03*
X130363Y384874D02*
D03*
X122489D02*
D03*
X118552Y377000D02*
D03*
X52200Y256500D02*
D03*
M02*
